<svg width="213" height="60" viewBox="0 0 213 60" fill="none" xmlns="http://www.w3.org/2000/svg">
<g clip-path="url(#clip0_0_844)">
<path d="M90.8907 5.35267L104.543 0L88.4148 47.2401H76.6713L90.8907 5.35267Z" fill="#2274FF"/>
<path d="M173.84 26.4881V47.2696H163.655V27.9774C163.655 23.7798 161.006 21.8186 157.736 21.8186C153.998 21.8186 151.418 23.9862 151.418 28.7884V47.2696H141.243V17.9848L151.418 13.4284V16.6085C153.253 14.1067 156.646 12.4797 161.13 12.4797C168 12.4797 173.84 17.3556 173.84 26.4881Z" fill="#030163"/>
<path d="M122.175 38.1716C124.789 37.2181 126.654 35.3896 127.413 33.5268L136.676 35.1291C135.132 40.5899 131.251 44.5319 125.164 46.7388C114.254 50.7054 104.814 45.859 101.342 36.3825C97.8697 26.906 102.082 17.0903 112.163 13.4235C121.475 10.037 130.999 14.7113 134.516 24.3107C134.99 25.583 135.33 26.9007 135.532 28.2429L112.888 36.5054C115.31 39.3709 118.669 39.4496 122.175 38.1716ZM123.798 24.468C121.426 21.1502 118.067 20.8602 115.196 21.9072C111.561 23.2294 109.771 25.8934 110.082 29.4619L123.798 24.468Z" fill="#030163"/>
<path d="M180.399 34.2444V15.9696L190.584 13.4678V32.7551C190.584 36.9527 193.233 38.9138 196.503 38.9138C200.242 38.9138 202.821 36.7462 202.821 31.9441V13.4678H213.011V42.7624L202.811 47.309V44.1289C200.976 46.6307 197.583 48.2576 193.1 48.2576C186.239 48.2576 180.399 43.3818 180.399 34.2444Z" fill="#030163"/>
<path d="M75.2114 13.3743H63.2411L74.6738 47.2155H86.5998L75.2114 13.3743Z" fill="#030163"/>
<path d="M53.3916 59.9999C53.1414 59.9988 52.8946 59.9427 52.6687 59.8357C52.4428 59.7286 52.2433 59.5732 52.0845 59.3806L52.0352 59.3216L46.3337 51.6392H11.2907C10.6278 51.6382 9.98226 51.4284 9.44632 51.0397C8.91038 50.651 8.51153 50.1033 8.30685 49.475C8.10217 48.8467 8.10213 48.17 8.30676 47.5417C8.51138 46.9133 8.91017 46.3656 9.44608 45.9768L10.6495 44.9496C10.758 44.8365 10.8764 44.7235 10.9997 44.6104L12.0453 43.6274L15.2216 40.6782L19.8381 36.3725C19.9955 36.2263 20.1865 36.121 20.3943 36.0657C20.6021 36.0104 20.8204 36.0069 21.0299 36.0554C21.2394 36.104 21.4337 36.2031 21.5957 36.3441C21.7577 36.4851 21.8825 36.6637 21.959 36.864L24.5878 43.6175L29.2191 24.2663C29.129 24.282 29.0401 24.3033 28.9527 24.3302H28.8837L10.4128 29.2209L17.155 31.9783C17.3594 32.0618 17.5392 32.1954 17.6779 32.3667C17.8167 32.5379 17.9098 32.7413 17.9486 32.9579C17.9875 33.1746 17.9708 33.3975 17.9002 33.606C17.8296 33.8146 17.7073 34.002 17.5447 34.1508L5.91959 44.7284L5.8752 44.7677C5.35285 45.2071 4.71451 45.4871 4.0366 45.5743C3.35868 45.6614 2.66993 45.5521 2.05278 45.2592C1.43761 44.973 0.917499 44.5173 0.553917 43.9459C0.190334 43.3746 -0.00152803 42.7114 0.00100125 42.0348V17.2818C0.00192224 16.7756 0.13695 16.2785 0.392432 15.841C0.647915 15.4034 1.0148 15.0408 1.45599 14.7898L25.9935 0.879768C26.4281 0.634206 26.9192 0.505127 27.4188 0.505127C27.9185 0.505127 28.4096 0.634206 28.8442 0.879768L38.6395 6.47819V5.39685C38.6362 5.1028 38.6915 4.81102 38.802 4.53836C38.9125 4.26569 39.0761 4.01755 39.2834 3.80824C39.4907 3.59894 39.7375 3.43263 40.0096 3.31891C40.2817 3.20519 40.5737 3.14631 40.8688 3.14568H47.0538C47.643 3.14823 48.2076 3.38161 48.6256 3.79545C49.0436 4.20928 49.2815 4.77036 49.288 5.35753L49.3472 12.4354C49.3477 12.4814 49.3608 12.5263 49.3852 12.5653C49.4095 12.6043 49.4442 12.6359 49.4853 12.6566L53.5346 14.7751C53.9991 15.0175 54.388 15.382 54.6593 15.8291C54.9306 16.2762 55.0738 16.7888 55.0734 17.3113V50.5038C55.0734 51.6244 55.108 56.4364 55.1129 58.2796C55.1168 58.6321 55.01 58.9771 54.8075 59.2661C54.605 59.5552 54.3168 59.774 53.9834 59.8918C53.794 59.9619 53.5937 59.9985 53.3916 59.9999ZM12.4251 46.8665L12.356 46.9304L11.1082 47.997L10.9948 48.0806C10.8735 48.122 10.7732 48.2089 10.7151 48.3227C10.6571 48.4366 10.6457 48.5685 10.6835 48.6906C10.7214 48.8126 10.8054 48.9152 10.9178 48.9766C11.0302 49.0379 11.1622 49.0533 11.2858 49.0194H46.9946C47.1999 49.0194 47.4024 49.0674 47.5857 49.1596C47.769 49.2518 47.9281 49.3856 48.05 49.5502L52.489 55.5222C52.489 53.5119 52.489 51.2459 52.4594 50.5185V17.3162C52.4589 17.2703 52.4458 17.2254 52.4214 17.1864C52.3971 17.1474 52.3624 17.1158 52.3213 17.0951L48.272 14.9766C47.8108 14.7353 47.4241 14.3738 47.1531 13.9305C46.882 13.4873 46.7369 12.979 46.7332 12.46L46.674 5.76057H41.2486V8.10513C41.254 8.39992 41.1808 8.69086 41.0364 8.94825C40.8921 9.20563 40.6819 9.42024 40.4271 9.57016C40.1723 9.72009 39.8822 9.79997 39.5864 9.80165C39.2905 9.80332 38.9995 9.72673 38.7431 9.57969L27.5126 3.18992C27.4742 3.16839 27.4308 3.15708 27.3868 3.15708C27.3427 3.15708 27.2994 3.16839 27.261 3.18992L2.75314 17.0606C2.71418 17.0831 2.68182 17.1153 2.65931 17.1541C2.6368 17.193 2.62494 17.237 2.62491 17.2818V42.0348C2.63297 42.212 2.68896 42.3837 2.78696 42.5317C2.88495 42.6797 3.0213 42.7986 3.18155 42.8756C3.34181 42.9527 3.52 42.9852 3.69725 42.9695C3.8745 42.9539 4.04421 42.8908 4.1884 42.7869L14.2451 33.6151L8.97259 31.4573C8.57922 31.363 8.21745 31.1678 7.92327 30.891C7.62908 30.6142 7.4127 30.2655 7.29566 29.8795C6.96027 28.6311 7.91711 27.535 8.10946 27.3285C8.27786 27.15 8.4932 27.0223 8.73091 26.9599L28.1833 21.8235C28.79 21.6367 30.2302 21.332 31.2018 22.2167C31.6457 22.6247 32.1093 23.3964 31.7937 24.7628L26.9602 44.9545C26.9424 45.0319 26.9176 45.1076 26.8862 45.1806C26.7475 45.559 26.5204 45.899 26.2236 46.1725C25.9269 46.446 25.569 46.6452 25.1796 46.7534C24.8022 46.8338 24.4118 46.8315 24.0354 46.7466C23.659 46.6617 23.3056 46.4964 22.9996 46.2619C22.8129 46.1192 22.6681 45.9291 22.5804 45.7114L20.2228 39.6067C17.303 42.3199 12.7062 46.6011 12.4251 46.8665Z" fill="#2274FF"/>
<g opacity="0.5">
<path d="M29.6334 10.6069H29.6285C29.1981 10.6069 28.8492 10.9546 28.8492 11.3835V18.1714C28.8492 18.6004 29.1981 18.948 29.6285 18.948H29.6334C30.0638 18.948 30.4127 18.6004 30.4127 18.1714V11.3835C30.4127 10.9546 30.0638 10.6069 29.6334 10.6069Z" fill="#2274FF"/>
<path d="M20.0742 14.5514L20.0707 14.5549C19.7664 14.8581 19.7664 15.3499 20.0707 15.6531L24.887 20.4529C25.1913 20.7562 25.6847 20.7562 25.9891 20.4529L25.9926 20.4494C26.2969 20.1462 26.2969 19.6544 25.9926 19.3512L21.1762 14.5514C20.8719 14.2481 20.3785 14.2481 20.0742 14.5514Z" fill="#2274FF"/>
<path d="M33.2713 27.6962L33.2678 27.6996C32.9634 28.0029 32.9634 28.4946 33.2678 28.7979L38.0841 33.5977C38.3884 33.901 38.8818 33.901 39.1862 33.5977L39.1896 33.5942C39.494 33.2909 39.494 32.7992 39.1896 32.4959L34.3733 27.6962C34.069 27.3929 33.5756 27.3929 33.2713 27.6962Z" fill="#2274FF"/>
<path d="M34.7726 24.0698V24.0747C34.7726 24.5036 35.1215 24.8513 35.5519 24.8513H42.3632C42.7936 24.8513 43.1425 24.5036 43.1425 24.0747V24.0698C43.1425 23.6409 42.7936 23.2932 42.3632 23.2932H35.5519C35.1215 23.2932 34.7726 23.6409 34.7726 24.0698Z" fill="#2274FF"/>
<path d="M33.2696 20.4467L33.2731 20.4501C33.5775 20.7534 34.0709 20.7534 34.3752 20.4501L39.1915 15.6504C39.4958 15.3471 39.4958 14.8554 39.1915 14.5521L39.188 14.5486C38.8837 14.2453 38.3903 14.2453 38.086 14.5486L33.2696 19.3484C32.9653 19.6517 32.9653 20.1434 33.2696 20.4467Z" fill="#2274FF"/>
</g>
<path d="M78.5949 57.4687V59.538C78.4843 59.6057 78.367 59.6617 78.2447 59.7051C78.1108 59.754 77.9741 59.795 77.8353 59.828C77.6941 59.862 77.5507 59.8866 77.4062 59.9017C77.2699 59.9092 77.1332 59.9092 76.9969 59.9017C76.6692 59.9076 76.3437 59.8474 76.04 59.7248C75.7716 59.6118 75.5298 59.4444 75.3298 59.2332C75.1372 59.031 74.9879 58.7918 74.8908 58.5304C74.7884 58.2603 74.7366 57.9737 74.7379 57.6849C74.7355 57.3872 74.7908 57.0918 74.9007 56.8149C75.0054 56.5553 75.1595 56.3184 75.3544 56.117C75.5514 55.9152 75.7882 55.7562 76.0499 55.65C76.3313 55.534 76.6332 55.4755 76.9377 55.478C77.2614 55.4682 77.5841 55.5182 77.8896 55.6255C78.1227 55.7128 78.3346 55.8485 78.511 56.0236L78.1066 56.4561C77.9503 56.301 77.7617 56.1819 77.5542 56.1072C77.3556 56.0499 77.1491 56.025 76.9426 56.0334C76.7263 56.0293 76.5115 56.071 76.3126 56.1557C76.1136 56.2405 75.935 56.3663 75.7885 56.525C75.6477 56.6792 75.5387 56.8596 75.4679 57.0558C75.392 57.2637 75.3536 57.4834 75.3544 57.7046C75.3529 57.9321 75.3965 58.1576 75.4827 58.3682C75.5617 58.566 75.679 58.7464 75.8279 58.899C75.968 59.0474 76.1355 59.1676 76.3212 59.2529C76.527 59.3397 76.7487 59.3832 76.9722 59.3807C77.1659 59.3824 77.3593 59.3643 77.5493 59.3266C77.7112 59.2965 77.8676 59.2418 78.0129 59.1644V57.9995H77.0758V57.4638L78.5949 57.4687Z" fill="#9AA1A8"/>
<path d="M82.511 55.6206V58.1962C82.5119 58.3339 82.5302 58.4709 82.5653 58.6041C82.6002 58.7433 82.6604 58.8749 82.7428 58.9924C82.8283 59.1121 82.9395 59.2112 83.0684 59.2824C83.2229 59.3541 83.3912 59.3912 83.5616 59.3912C83.732 59.3912 83.9003 59.3541 84.0548 59.2824C84.1837 59.2112 84.2949 59.1121 84.3803 58.9924C84.4628 58.8749 84.523 58.7433 84.5579 58.6041C84.593 58.4709 84.6112 58.3339 84.6121 58.1962V55.6206H85.1843V58.2846C85.1879 58.5134 85.146 58.7406 85.061 58.9531C84.9817 59.1479 84.8644 59.325 84.7157 59.4741C84.5683 59.6214 84.392 59.7369 84.1978 59.8133C83.7834 59.9714 83.325 59.9714 82.9105 59.8133C82.7163 59.737 82.54 59.6215 82.3927 59.4741C82.2437 59.3253 82.1263 59.1481 82.0474 58.9531C81.9619 58.7408 81.9199 58.5134 81.9241 58.2846V55.6206H82.511Z" fill="#9AA1A8"/>
<path d="M88.5923 55.6206H91.3149V56.1564H89.1645V57.4097H91.1669V57.9455H89.1645V59.2923H91.4234V59.828H88.5923V55.6206Z" fill="#9AA1A8"/>
<path d="M94.7378 58.9432C94.8343 59.0914 94.9712 59.209 95.1324 59.2824C95.2872 59.3531 95.4553 59.3899 95.6256 59.3905C95.7243 59.3903 95.8224 59.3754 95.9166 59.3463C96.0141 59.3181 96.1059 59.2732 96.1879 59.2136C96.27 59.1547 96.3389 59.0794 96.3901 58.9924C96.4441 58.9 96.4714 58.7945 96.469 58.6876C96.4735 58.6186 96.4621 58.5495 96.4355 58.4856C96.409 58.4217 96.3682 58.3647 96.3161 58.319C96.2007 58.2263 96.0707 58.1532 95.9314 58.1027C95.7769 58.047 95.6125 57.9913 95.4382 57.9356C95.2647 57.8839 95.0988 57.8096 94.945 57.7144C94.7895 57.617 94.658 57.486 94.5603 57.331C94.4483 57.1337 94.3953 56.9086 94.4074 56.6822C94.4087 56.5474 94.4355 56.414 94.4863 56.289C94.5426 56.1467 94.6283 56.0177 94.7378 55.9105C94.8661 55.788 95.0168 55.6913 95.1817 55.6255C95.3885 55.5427 95.61 55.5025 95.8328 55.5075C96.0565 55.5062 96.2791 55.5377 96.4937 55.6009C96.7131 55.6714 96.9058 55.8068 97.0461 55.9892L96.5824 56.4119C96.5065 56.2974 96.4008 56.2057 96.2766 56.1465C96.1377 56.0762 95.9836 56.0407 95.8278 56.0432C95.6935 56.0403 95.5598 56.062 95.4333 56.1071C95.3389 56.1429 95.2531 56.1982 95.1817 56.2693C95.1221 56.329 95.0766 56.4012 95.0485 56.4807C95.0242 56.5469 95.0109 56.6166 95.0091 56.6871C95.0039 56.7621 95.0148 56.8373 95.0412 56.9076C95.0675 56.978 95.1087 57.0419 95.162 57.0951C95.2745 57.1956 95.405 57.274 95.5467 57.3261C95.7078 57.3897 95.8725 57.4438 96.0399 57.4883C96.2122 57.5345 96.3779 57.6022 96.5331 57.6898C96.6859 57.7739 96.8175 57.8916 96.9178 58.0339C97.0296 58.2115 97.0831 58.4194 97.0707 58.6286C97.0728 58.817 97.0323 59.0035 96.9524 59.1742C96.8795 59.3309 96.7735 59.4701 96.6416 59.5822C96.5051 59.6964 96.3477 59.7832 96.178 59.8378C95.9934 59.8981 95.8001 59.928 95.6059 59.9263C95.3426 59.9279 95.0815 59.8795 94.8365 59.7837C94.6052 59.6975 94.4045 59.5454 94.2594 59.3463L94.7378 58.9432Z" fill="#9AA1A8"/>
<path d="M101.189 56.1515H99.8278V55.6157H103.118V56.1515H101.761V59.8182H101.189V56.1515Z" fill="#9AA1A8"/>
<path d="M110.269 58.9432C110.366 59.0914 110.503 59.209 110.664 59.2824C110.819 59.3531 110.987 59.3899 111.157 59.3905C111.256 59.3903 111.354 59.3754 111.448 59.3463C111.545 59.3181 111.637 59.2732 111.719 59.2136C111.801 59.1547 111.87 59.0794 111.921 58.9924C111.975 58.9 112.003 58.7945 112 58.6876C112.005 58.6186 111.993 58.5495 111.967 58.4856C111.94 58.4217 111.9 58.3647 111.847 58.319C111.732 58.2263 111.602 58.1532 111.463 58.1027C111.308 58.047 111.144 57.9913 110.97 57.9356C110.796 57.8839 110.63 57.8096 110.476 57.7144C110.321 57.617 110.189 57.486 110.092 57.331C109.98 57.1337 109.927 56.9086 109.939 56.6822C109.94 56.5474 109.967 56.414 110.018 56.289C110.074 56.1467 110.16 56.0177 110.269 55.9105C110.397 55.788 110.548 55.6913 110.713 55.6255C110.92 55.5427 111.141 55.5025 111.364 55.5075C111.588 55.5062 111.811 55.5377 112.025 55.6009C112.244 55.6714 112.437 55.8068 112.577 55.9892L112.114 56.4119C112.038 56.2974 111.932 56.2057 111.808 56.1465C111.669 56.0762 111.515 56.0407 111.359 56.0432C111.225 56.0403 111.091 56.062 110.965 56.1071C110.87 56.1429 110.784 56.1982 110.713 56.2693C110.653 56.329 110.608 56.4012 110.58 56.4807C110.556 56.5469 110.542 56.6166 110.54 56.6871C110.535 56.7621 110.546 56.8373 110.573 56.9076C110.599 56.978 110.64 57.0419 110.693 57.0951C110.806 57.1956 110.936 57.274 111.078 57.3261C111.239 57.3897 111.404 57.4438 111.571 57.4883C111.744 57.5345 111.909 57.6022 112.064 57.6898C112.217 57.7739 112.349 57.8916 112.449 58.0339C112.561 58.2115 112.614 58.4194 112.602 58.6286C112.604 58.817 112.564 59.0035 112.484 59.1742C112.411 59.3309 112.305 59.4701 112.173 59.5822C112.036 59.6964 111.879 59.7832 111.709 59.8378C111.525 59.8981 111.332 59.928 111.137 59.9263C110.874 59.9279 110.613 59.8795 110.368 59.7837C110.137 59.6975 109.936 59.5454 109.791 59.3463L110.269 58.9432Z" fill="#9AA1A8"/>
<path d="M115.838 55.6206H118.56V56.1564H116.4V57.4097H118.402V57.9455H116.4V59.2923H118.659V59.828H115.828L115.838 55.6206Z" fill="#9AA1A8"/>
<path d="M121.86 55.6206H123.339C123.566 55.613 123.792 55.6498 124.005 55.7287C124.163 55.7902 124.304 55.8859 124.42 56.0089C124.518 56.1178 124.59 56.2471 124.632 56.3874C124.67 56.52 124.69 56.6573 124.691 56.7953C124.692 56.9279 124.669 57.0596 124.622 57.1836C124.574 57.3083 124.504 57.4232 124.415 57.5228C124.322 57.6263 124.212 57.7128 124.089 57.7784C123.954 57.8493 123.807 57.8928 123.655 57.9062L124.854 59.8231H124.138L123.068 57.9701H122.432V59.8231H121.86V55.6206ZM122.432 57.4736H123.182C123.292 57.4744 123.403 57.4662 123.512 57.4491C123.614 57.4332 123.712 57.3999 123.803 57.3508C123.89 57.302 123.961 57.2306 124.01 57.1443C124.061 57.0359 124.088 56.9176 124.088 56.7978C124.088 56.678 124.061 56.5597 124.01 56.4513C123.961 56.365 123.89 56.2936 123.803 56.2448C123.712 56.1956 123.614 56.1624 123.512 56.1465C123.403 56.1294 123.292 56.1212 123.182 56.1219H122.432V57.4736Z" fill="#9AA1A8"/>
<path d="M127.3 55.6206H127.961L129.199 59.0613L130.486 55.6206H131.112L129.45 59.8231H128.928L127.3 55.6206Z" fill="#9AA1A8"/>
<path d="M134.013 55.6206H134.585V59.8231H134.013V55.6206Z" fill="#9AA1A8"/>
<path d="M140.987 56.5251C140.867 56.37 140.711 56.2467 140.533 56.1663C140.355 56.0851 140.161 56.0432 139.966 56.0434C139.743 56.0399 139.523 56.0852 139.32 56.1761C139.131 56.2617 138.963 56.3856 138.826 56.5398C138.686 56.6983 138.577 56.8817 138.506 57.0805C138.429 57.2951 138.391 57.5213 138.392 57.749C138.392 57.9634 138.428 58.1762 138.501 58.3781C138.569 58.5703 138.675 58.7473 138.812 58.8991C138.949 59.0516 139.117 59.1738 139.305 59.2579C139.513 59.347 139.739 59.3905 139.966 59.3857C140.187 59.3906 140.406 59.3399 140.602 59.2383C140.787 59.1364 140.945 58.9934 141.066 58.8205L141.559 59.1842C141.507 59.2499 141.451 59.3123 141.391 59.371C141.296 59.4635 141.19 59.5443 141.075 59.6118C140.92 59.7037 140.755 59.7764 140.582 59.8281C140.375 59.8933 140.158 59.9248 139.941 59.9215C139.63 59.9257 139.321 59.8602 139.038 59.7298C138.78 59.6114 138.548 59.4445 138.353 59.2383C137.984 58.8345 137.777 58.3097 137.771 57.7637C137.768 57.4564 137.823 57.1513 137.934 56.8642C138.034 56.5992 138.187 56.3569 138.382 56.1515C138.579 55.9493 138.816 55.7902 139.078 55.6846C139.362 55.5712 139.665 55.5145 139.971 55.5174C140.251 55.5187 140.529 55.5738 140.789 55.6796C141.051 55.7798 141.279 55.9499 141.45 56.1712L140.987 56.5251Z" fill="#9AA1A8"/>
<path d="M144.627 55.6206H147.349V56.1564H145.199V57.4097H147.201V57.9455H145.199V59.2923H147.472V59.828H144.641L144.627 55.6206Z" fill="#9AA1A8"/>
<path d="M150.772 58.9433C150.869 59.0914 151.005 59.2091 151.167 59.2824C151.321 59.3531 151.49 59.39 151.66 59.3906C151.758 59.3904 151.857 59.3755 151.951 59.3463C152.048 59.3181 152.14 59.2732 152.222 59.2136C152.298 59.1499 152.36 59.0713 152.405 58.9826C152.459 58.8902 152.486 58.7848 152.483 58.6779C152.488 58.6089 152.477 58.5397 152.45 58.4758C152.424 58.4119 152.383 58.3549 152.331 58.3092C152.215 58.2165 152.085 58.1435 151.946 58.093C151.791 58.0373 151.627 57.9815 151.453 57.9258C151.279 57.8742 151.113 57.7998 150.959 57.7047C150.804 57.6073 150.672 57.4762 150.575 57.3213C150.463 57.1239 150.41 56.8988 150.422 56.6725C150.423 56.5376 150.45 56.4042 150.501 56.2792C150.557 56.1369 150.643 56.008 150.752 55.9008C150.881 55.7783 151.031 55.6815 151.196 55.6157C151.403 55.5329 151.624 55.4928 151.847 55.4977C152.071 55.4964 152.294 55.5279 152.508 55.5911C152.728 55.6616 152.92 55.797 153.061 55.9794L152.597 56.4021C152.521 56.2877 152.415 56.1959 152.291 56.1367C152.152 56.0664 151.998 56.031 151.842 56.0335C151.708 56.0306 151.574 56.0522 151.448 56.0974C151.353 56.1331 151.268 56.1884 151.196 56.2596C151.137 56.3193 151.091 56.3915 151.063 56.4709C151.039 56.5372 151.025 56.6069 151.024 56.6774C151.018 56.7523 151.029 56.8275 151.056 56.8979C151.082 56.9682 151.123 57.0322 151.176 57.0853C151.289 57.1858 151.419 57.2642 151.561 57.3164C151.722 57.3799 151.887 57.4341 152.054 57.4786C152.227 57.5247 152.392 57.5924 152.548 57.6801C152.7 57.7642 152.832 57.8818 152.932 58.0241C153.044 58.2017 153.098 58.4096 153.085 58.6189C153.087 58.8073 153.047 58.9937 152.967 59.1645C152.894 59.3212 152.788 59.4603 152.656 59.5724C152.52 59.6867 152.362 59.7734 152.192 59.828C152.008 59.8883 151.815 59.9182 151.62 59.9165C151.357 59.9181 151.096 59.8698 150.851 59.774C150.62 59.6878 150.419 59.5356 150.274 59.3365L150.772 58.9433Z" fill="#9AA1A8"/>
<path d="M160.503 58.9432C160.6 59.0914 160.737 59.209 160.898 59.2824C161.053 59.3531 161.221 59.3899 161.391 59.3905C161.49 59.3903 161.588 59.3754 161.682 59.3463C161.779 59.3181 161.871 59.2732 161.953 59.2136C162.035 59.1547 162.104 59.0794 162.155 58.9924C162.209 58.9 162.237 58.7945 162.234 58.6876C162.239 58.6186 162.227 58.5495 162.201 58.4856C162.174 58.4217 162.134 58.3647 162.081 58.319C161.966 58.2263 161.836 58.1532 161.697 58.1027C161.542 58.047 161.378 57.9913 161.204 57.9356C161.03 57.8839 160.864 57.8096 160.71 57.7144C160.555 57.617 160.423 57.486 160.326 57.331C160.214 57.1337 160.161 56.9086 160.173 56.6822C160.174 56.5474 160.201 56.414 160.252 56.289C160.308 56.1467 160.394 56.0177 160.503 55.9105C160.631 55.788 160.782 55.6913 160.947 55.6255C161.154 55.5427 161.375 55.5025 161.598 55.5075C161.822 55.5062 162.044 55.5377 162.259 55.6009C162.478 55.6714 162.671 55.8068 162.811 55.9892L162.348 56.4119C162.272 56.2974 162.166 56.2057 162.042 56.1465C161.903 56.0762 161.749 56.0407 161.593 56.0432C161.459 56.0403 161.325 56.062 161.199 56.1071C161.104 56.1429 161.018 56.1982 160.947 56.2693C160.887 56.329 160.842 56.4012 160.814 56.4807C160.79 56.5469 160.776 56.6166 160.774 56.6871C160.769 56.7621 160.78 56.8373 160.807 56.9076C160.833 56.978 160.874 57.0419 160.927 57.0951C161.04 57.1956 161.17 57.274 161.312 57.3261C161.473 57.3897 161.638 57.4438 161.805 57.4883C161.978 57.5345 162.143 57.6022 162.298 57.6898C162.451 57.7739 162.583 57.8916 162.683 58.0339C162.795 58.2115 162.848 58.4194 162.836 58.6286C162.838 58.817 162.798 59.0035 162.718 59.1742C162.645 59.3309 162.539 59.4701 162.407 59.5822C162.27 59.6964 162.113 59.7832 161.943 59.8378C161.759 59.8981 161.565 59.928 161.371 59.9263C161.108 59.9279 160.847 59.8795 160.602 59.7837C160.371 59.6975 160.17 59.5454 160.025 59.3463L160.503 58.9432Z" fill="#9AA1A8"/>
<path d="M166.072 55.6206H166.644V59.8231H166.072V55.6206Z" fill="#9AA1A8"/>
<path d="M170.067 55.6206H170.92L172.261 58.8007L173.588 55.6206H174.441V59.8231H173.869V56.3825L172.444 59.8231H172.064L170.639 56.3825V59.8231H170.067V55.6206Z" fill="#9AA1A8"/>
<path d="M177.884 55.6206H179.364C179.591 55.613 179.817 55.6498 180.03 55.7287C180.187 55.7902 180.328 55.8859 180.444 56.0089C180.542 56.1178 180.614 56.2471 180.656 56.3874C180.734 56.6521 180.734 56.9337 180.656 57.1984C180.615 57.3391 180.543 57.4686 180.444 57.5769C180.328 57.6998 180.187 57.7955 180.03 57.857C179.817 57.9365 179.591 57.9732 179.364 57.9652H178.451V59.8182H177.879L177.884 55.6206ZM178.456 57.4736H179.206C179.317 57.4744 179.427 57.4662 179.536 57.4491C179.638 57.4332 179.737 57.3999 179.827 57.3508C179.914 57.302 179.986 57.2306 180.034 57.1443C180.086 57.0359 180.112 56.9176 180.112 56.7978C180.112 56.678 180.086 56.5597 180.034 56.4513C179.986 56.365 179.914 56.2936 179.827 56.2448C179.737 56.1956 179.638 56.1624 179.536 56.1465C179.427 56.1294 179.317 56.1212 179.206 56.1219H178.456V57.4736Z" fill="#9AA1A8"/>
<path d="M183.798 55.6206H184.37V59.2874H186.303V59.8231H183.798V55.6206Z" fill="#9AA1A8"/>
<path d="M189.272 55.6206H189.845V59.8231H189.272V55.6206Z" fill="#9AA1A8"/>
<path d="M193.307 55.6206H195.955V56.1564H193.879V57.4736H195.808V57.9996H193.874V59.8133H193.302L193.307 55.6206Z" fill="#9AA1A8"/>
<path d="M199.107 55.6206H199.679V59.8231H199.107V55.6206Z" fill="#9AA1A8"/>
<path d="M203.147 55.6206H205.869V56.1564H203.699V57.4097H205.701V57.9455H203.699V59.2923H205.958V59.828H203.127L203.147 55.6206Z" fill="#9AA1A8"/>
<path d="M209.07 55.6205H210.55C210.815 55.615 211.079 55.6481 211.334 55.7188C211.541 55.7786 211.737 55.8697 211.916 55.9891C212.073 56.0951 212.211 56.2263 212.325 56.3774C212.431 56.5165 212.519 56.6685 212.587 56.8296C212.649 56.9783 212.695 57.1332 212.725 57.2916C212.752 57.4326 212.767 57.5757 212.769 57.7193C212.77 57.9867 212.72 58.2519 212.621 58.5008C212.522 58.7512 212.373 58.9787 212.182 59.1692C211.977 59.3803 211.73 59.5476 211.457 59.6608C211.143 59.783 210.808 59.8431 210.471 59.8377H209.095L209.07 55.6205ZM209.642 59.2872H210.362C210.594 59.2884 210.825 59.2553 211.048 59.1889C211.254 59.1282 211.447 59.0281 211.615 58.894C211.78 58.7614 211.914 58.5934 212.005 58.4025C212.104 58.1885 212.153 57.9549 212.148 57.7193C212.147 57.5534 212.125 57.3884 212.084 57.2277C212.034 57.0495 211.95 56.8826 211.837 56.7362C211.705 56.5642 211.537 56.4232 211.344 56.3233C211.084 56.1997 210.798 56.1406 210.51 56.1513H209.652L209.642 59.2872Z" fill="#9AA1A8"/>
</g>
<defs>
<clipPath id="clip0_0_844">
<rect width="213" height="60" fill="white" transform="translate(0.000976562)"/>
</clipPath>
</defs>
</svg>
