<svg width="343" height="200" viewBox="0 0 343 200" fill="none" xmlns="http://www.w3.org/2000/svg">
<g filter="url(#filter0_d_0_1162)">
<path d="M268.681 44.4557C268.72 44.5622 268.733 44.6761 268.719 44.7885C268.706 44.9009 268.666 45.0087 268.603 45.1032C268.526 45.2602 268.437 45.4109 268.336 45.5541C268.229 45.7268 268.102 45.9139 267.957 46.1154C267.373 46.9212 266.542 48.0341 265.624 49.4731C263.257 53.2649 261.351 57.319 259.947 61.5514C258.505 65.8078 257.493 70.1941 256.923 74.6466C256.437 78.0763 256.394 80.3212 255.679 80.4747C255.344 80.5418 254.897 80.0526 254.445 79.0357C253.864 77.6262 253.492 76.1415 253.341 74.6274C252.855 70.8284 253.259 65.4608 255.149 59.9445C257.04 54.4282 260.01 49.8712 262.877 47.185C264.001 46.0847 265.319 45.1955 266.766 44.5612C267.033 44.4605 267.252 44.3837 267.485 44.3262C267.675 44.2831 267.869 44.2574 268.063 44.2494C268.409 44.2494 268.593 44.3166 268.681 44.4557Z" fill="#E6E6E6"/>
<path d="M251.052 46.8157C250.731 46.7102 250.488 46.3361 250.478 45.6549C250.5 44.7369 250.784 43.8436 251.3 43.0791C252.048 41.9102 253.094 40.9558 254.333 40.3113C255.879 39.5047 257.624 39.1424 259.368 39.2656C261.058 39.3781 262.694 39.9039 264.126 40.7958C265.262 41.4969 266.226 42.4371 266.95 43.5491C267.444 44.2806 267.754 45.1175 267.854 45.9907C267.893 46.6287 267.723 47.0412 267.412 47.1995C266.771 47.5113 265.769 46.7822 264.37 46.0003C262.748 45.0176 260.918 44.4199 259.023 44.2543C258.073 44.1837 257.118 44.2746 256.199 44.5229C255.399 44.7481 254.63 45.0704 253.91 45.4822C252.607 46.2018 251.737 47.0316 251.052 46.8157Z" fill="#E6E6E6"/>
<path d="M279.665 56.6013C279.34 56.7308 278.926 56.6013 278.47 56.2223C277.906 55.7069 277.436 55.1001 277.08 54.4283C276.161 52.8598 275.388 50.706 274.294 49.267C273.843 48.6556 273.279 48.1333 272.632 47.7272C272.388 47.5822 272.131 47.4602 271.864 47.3627C271.604 47.2796 271.335 47.2296 271.062 47.214C270.561 47.1843 270.057 47.2214 269.565 47.3243C269.188 47.4422 268.784 47.4572 268.399 47.3675C268.088 47.238 267.859 46.8254 268.005 46.1347C268.137 45.6633 268.364 45.2229 268.672 44.8398C268.98 44.4566 269.363 44.1384 269.799 43.9042C270.395 43.5529 271.056 43.3214 271.743 43.2231C272.556 43.1161 273.383 43.1732 274.173 43.3909C275.846 43.8689 277.311 44.8812 278.338 46.269C279.224 47.4804 279.843 48.861 280.156 50.3223C280.389 51.3572 280.508 52.4138 280.511 53.4738C280.527 54.1762 280.46 54.878 280.312 55.5652C280.195 56.1072 279.991 56.4718 279.665 56.6013Z" fill="#E6E6E6"/>
<path d="M268.482 59.5032C267.889 59.1194 267.767 58.2128 267.694 57.1336C267.621 56.0543 267.607 54.7736 267.451 53.4401C267.296 52.1066 267.023 50.8546 266.839 49.7849C266.654 48.7152 266.571 47.8086 267.062 47.305C267.553 46.8013 268.598 46.8781 269.804 47.7847C271.3 49.0879 272.254 50.8924 272.482 52.8495C272.709 54.8066 272.193 56.7773 271.033 58.3807C270.076 59.5751 269.045 59.8773 268.482 59.5032Z" fill="#E6E6E6"/>
<path d="M275.408 37.7114C275.27 38.0567 275.029 38.3527 274.717 38.5604C274.401 38.8098 274.047 39.0833 273.692 39.3807C273.298 39.7134 272.923 40.0673 272.569 40.4407C272.163 40.8749 271.797 41.3436 271.475 41.8414C270.746 42.9734 270.139 44.3741 269.502 45.4917C268.865 46.6094 268.17 47.3481 267.47 47.2713C266.771 47.1946 266.212 46.3744 265.978 44.9353C265.84 44.0854 265.84 43.219 265.978 42.369C266.16 41.2324 266.573 40.144 267.193 39.1696C268.652 36.8719 271.135 35.8118 272.972 35.9174C273.709 35.92 274.423 36.1723 274.994 36.6321C275.162 36.7526 275.291 36.919 275.364 37.1108C275.438 37.3025 275.453 37.5113 275.408 37.7114Z" fill="#E6E6E6"/>
<path d="M280.608 42.8489C280.283 42.9784 279.714 42.3692 278.62 42.1917C277.959 42.0937 277.285 42.105 276.627 42.2253C275.736 42.3684 274.858 42.585 274.003 42.8729C272.429 43.432 270.935 44.1915 269.56 45.1321C268.457 45.8565 267.752 46.3937 267.451 46.1874C267.15 45.9812 267.388 45.0554 268.321 43.8562C269.581 42.3 271.269 41.1345 273.181 40.4985C274.235 40.1401 275.338 39.9427 276.453 39.9132C277.445 39.8689 278.432 40.0875 279.31 40.5464C279.925 40.8702 280.408 41.3915 280.681 42.0238C280.846 42.4939 280.764 42.7817 280.608 42.8489Z" fill="#E6E6E6"/>
<path d="M259.815 37.462C259.777 37.2989 259.893 37.0975 260.19 36.9152C260.613 36.6859 261.093 36.5779 261.575 36.6034C262.354 36.6592 263.111 36.8852 263.791 37.2652C264.471 37.6451 265.057 38.1695 265.507 38.8003C266.342 39.9449 266.835 41.2976 266.931 42.7049C266.994 43.7266 266.824 44.3742 266.489 44.4653C266.153 44.5565 265.701 44.0384 265.215 43.2086C264.694 42.2005 264.113 41.2235 263.475 40.2825C262.867 39.479 262.091 38.8133 261.201 38.3302C260.51 37.9465 259.903 37.8074 259.815 37.462Z" fill="#E6E6E6"/>
<path d="M257.181 50.8162C257.011 50.8162 256.821 50.6915 256.695 50.3701C256.523 49.9101 256.483 49.4123 256.578 48.9311C256.753 48.1426 257.111 47.4052 257.625 46.7773C258.139 46.1495 258.794 45.6485 259.538 45.3143C260.303 44.9575 261.126 44.7382 261.969 44.6668C262.618 44.6097 263.271 44.6387 263.913 44.7531C264.992 44.9498 265.604 45.3095 265.59 45.6453C265.575 45.9811 264.929 46.2689 263.966 46.5183C262.819 46.7613 261.697 47.1115 260.617 47.564C259.674 48.0204 258.858 48.6971 258.241 49.5355C257.75 50.1687 257.546 50.7731 257.181 50.8162Z" fill="#E6E6E6"/>
<path d="M242.342 53.3682C242.322 53.4327 242.316 53.5006 242.324 53.5676C242.333 53.6345 242.355 53.699 242.391 53.7568C242.436 53.8506 242.49 53.9405 242.551 54.0254C242.614 54.1309 242.692 54.246 242.779 54.3659C243.129 54.8456 243.635 55.5124 244.189 56.3758C245.61 58.6623 246.752 61.1064 247.591 63.6573C248.474 66.219 249.097 68.8605 249.453 71.5432C249.73 73.6106 249.769 74.9633 250.201 75.0544C250.405 75.0976 250.687 74.805 250.945 74.2006C251.295 73.3525 251.519 72.4591 251.611 71.548C251.894 68.5485 251.515 65.524 250.498 62.6836C249.38 59.3594 247.582 56.6108 245.841 55.0087C245.163 54.3483 244.369 53.8137 243.499 53.4306C243.357 53.3748 243.213 53.3267 243.066 53.2867C242.951 53.2604 242.834 53.246 242.716 53.2435C242.522 53.2339 242.395 53.2771 242.342 53.3682Z" fill="#E6E6E6"/>
<path d="M252.967 54.7831C253.157 54.7207 253.307 54.4809 253.312 54.0828C253.301 53.5299 253.133 52.9912 252.826 52.5286C252.375 51.8238 251.745 51.2482 250.999 50.8593C250.066 50.3768 249.016 50.1608 247.966 50.2357C246.939 50.3048 245.947 50.6264 245.079 51.1711C244.393 51.5946 243.812 52.1632 243.377 52.8356C243.078 53.2738 242.891 53.7777 242.833 54.3034C242.833 54.6871 242.911 54.9366 243.1 55.0325C243.484 55.2196 244.072 54.7831 244.933 54.3082C245.906 53.7166 247.006 53.3569 248.145 53.2577C248.718 53.2154 249.293 53.2706 249.847 53.4208C250.329 53.5558 250.793 53.7491 251.227 53.9964C252.029 54.4137 252.554 54.9126 252.967 54.7831Z" fill="#E6E6E6"/>
<path d="M235.727 60.6784C235.921 60.7552 236.169 60.6784 236.446 60.4482C236.785 60.1366 237.069 59.7719 237.287 59.3689C237.836 58.4095 238.303 57.1288 238.964 56.2606C239.235 55.8905 239.575 55.5747 239.965 55.33C240.112 55.2429 240.267 55.169 240.427 55.1094C240.585 55.0609 240.748 55.0319 240.913 55.023C241.214 55.0058 241.516 55.0268 241.812 55.0854C242.04 55.1585 242.284 55.1685 242.517 55.1142C242.702 55.0374 242.838 54.788 242.75 54.3707C242.671 54.0867 242.535 53.8215 242.349 53.5907C242.164 53.36 241.933 53.1684 241.671 53.0276C241.307 52.8146 240.904 52.6745 240.485 52.615C239.997 52.5531 239.501 52.589 239.027 52.7206C238.017 53.0099 237.134 53.6245 236.519 54.4666C235.985 55.1964 235.611 56.0279 235.421 56.9082C235.28 57.5382 235.21 58.1817 235.212 58.8269C235.2 59.2489 235.239 59.6708 235.328 60.0836C235.346 60.2057 235.391 60.3223 235.46 60.4251C235.529 60.528 235.62 60.6145 235.727 60.6784Z" fill="#E6E6E6"/>
<path d="M242.464 62.4293C242.823 62.1942 242.896 61.6474 242.95 60.9902C243.003 60.3331 243.003 59.5512 243.096 58.7645C243.188 57.9779 243.353 57.2056 243.465 56.5628C243.577 55.9201 243.625 55.3732 243.329 55.0662C243.032 54.7592 242.4 54.812 241.676 55.3684C240.775 56.1538 240.2 57.2413 240.064 58.4205C239.927 59.5998 240.238 60.7871 240.937 61.7529C241.501 62.4677 242.123 62.6547 242.464 62.4293Z" fill="#E6E6E6"/>
<path d="M238.274 49.2956C238.36 49.5031 238.505 49.6814 238.692 49.8089C238.881 49.9576 239.095 50.1255 239.309 50.2886C239.548 50.487 239.773 50.7001 239.985 50.9265C240.231 51.1873 240.452 51.4699 240.646 51.7708C241.088 52.4519 241.453 53.2961 241.837 53.9677C242.221 54.6392 242.639 55.0901 243.061 55.0422C243.484 54.9942 243.82 54.4953 243.965 53.6367C244.05 53.1253 244.05 52.6036 243.965 52.0921C243.855 51.4108 243.607 50.7582 243.236 50.1734C242.876 49.5777 242.366 49.084 241.755 48.7403C241.145 48.3965 240.454 48.2144 239.751 48.2115C239.308 48.2184 238.879 48.3702 238.531 48.6433C238.429 48.7158 238.35 48.816 238.305 48.9318C238.259 49.0476 238.248 49.1739 238.274 49.2956Z" fill="#E6E6E6"/>
<path d="M235.158 52.3944C235.353 52.4711 235.698 52.1066 236.354 51.9962C236.753 51.9297 237.161 51.9297 237.56 51.9962C238.096 52.0849 238.624 52.2164 239.139 52.3896C240.086 52.7258 240.985 53.1821 241.812 53.7471C242.478 54.1836 242.906 54.5098 243.086 54.385C243.266 54.2603 243.125 53.7039 242.561 52.9796C241.803 52.0475 240.791 51.3485 239.645 50.9649C239.008 50.7507 238.343 50.6327 237.671 50.6148C237.074 50.5857 236.479 50.7167 235.951 50.9937C235.582 51.19 235.292 51.5025 235.124 51.8811C235.017 52.1785 235.066 52.3512 235.158 52.3944Z" fill="#E6E6E6"/>
<path d="M247.684 49.1469C247.684 49.0462 247.64 48.9263 247.46 48.8159C247.205 48.6778 246.915 48.613 246.624 48.6289C246.155 48.6622 245.699 48.7984 245.289 49.0274C244.88 49.2564 244.527 49.5725 244.257 49.9528C243.753 50.6411 243.455 51.4556 243.397 52.3032C243.358 52.922 243.465 53.3105 243.664 53.3681C243.863 53.4256 244.15 53.109 244.432 52.6054C244.748 51.9997 245.099 51.4119 245.482 50.845C245.848 50.361 246.316 49.9603 246.853 49.6698C247.266 49.4395 247.63 49.3532 247.684 49.1469Z" fill="#E6E6E6"/>
<path d="M249.273 57.196C249.375 57.196 249.487 57.1193 249.579 56.9226C249.685 56.6421 249.708 56.3379 249.647 56.0448C249.543 55.5697 249.327 55.1253 249.017 54.7472C248.707 54.369 248.312 54.0676 247.864 53.867C247.405 53.6508 246.911 53.5175 246.405 53.4737C246.011 53.4401 245.614 53.4578 245.224 53.5265C244.578 53.6464 244.209 53.8622 244.213 54.0685C244.218 54.2748 244.612 54.4379 245.185 54.5914C245.876 54.7383 246.552 54.9487 247.203 55.2197C247.78 55.4918 248.281 55.9004 248.661 56.4093C248.933 56.8027 249.054 57.1672 249.273 57.196Z" fill="#E6E6E6"/>
<path d="M34.9719 132.438C31.1662 132.582 27.5889 137.431 25.3531 137.614C23.1173 137.796 19.0637 135.182 16.6044 134.764C14.145 134.347 10.0136 134.673 10.0136 134.673C15.1025 120.643 22.1647 104.713 36.7897 100.918C50.1219 97.4504 63.2548 105.83 76.3876 109.97C96.9521 116.45 119.524 112.426 139.719 104.895C159.914 97.364 178.661 86.4609 198.725 78.6038C218.788 70.7467 241.103 65.9979 261.964 71.4758C277.731 75.6106 291.525 85.3433 302.791 96.9659C314.058 108.588 323.127 122.13 332.08 135.594C332.08 135.594 327.57 138.343 325.037 137.638C322.505 136.933 320.911 134.136 317.047 134.136C313.183 134.136 304.478 139.413 301.382 138.76C298.286 138.108 297.007 137.681 294.922 136.362C292.837 135.043 291.005 132.745 287.704 132.908" fill="#E6E6E6"/>
<path d="M199.391 165.186C198.948 165.488 199.099 166.222 199.531 166.533C200.002 166.791 200.535 166.912 201.072 166.884C201.611 166.854 202.142 167.025 202.559 167.363C203.012 167.843 203.016 168.644 203.561 169.004C204.105 169.364 204.708 169.133 205.204 169.416C205.388 169.551 205.543 169.72 205.659 169.915C205.776 170.109 205.853 170.324 205.884 170.548C205.944 170.997 206.098 171.428 206.336 171.815C206.464 172.003 206.661 172.134 206.886 172.178C207.111 172.223 207.345 172.179 207.537 172.055C207.935 171.7 207.707 171.062 207.712 170.534C207.712 169.479 208.727 168.745 209.33 167.877C209.774 167.235 210.011 166.476 210.011 165.699C210.011 164.922 209.774 164.163 209.331 163.521C208.888 162.879 208.259 162.384 207.526 162.099C206.793 161.815 205.991 161.756 205.223 161.929C203.041 162.408 201.607 164.658 199.429 165.186" fill="#E6E6E6"/>
<path d="M201.758 166.972C201.624 167.038 201.503 167.125 201.398 167.231C201.284 167.361 201.192 167.508 201.126 167.668C201.049 167.86 200.985 168.085 200.878 168.339C200.768 168.627 200.567 168.873 200.305 169.04C200.012 169.217 199.692 169.349 199.357 169.428C199.009 169.512 198.674 169.641 198.361 169.812C198.207 169.911 198.077 170.041 197.978 170.193C197.879 170.345 197.814 170.516 197.787 170.695C197.73 171.091 197.624 171.479 197.471 171.851C197.376 172.038 197.227 172.195 197.044 172.301C196.871 172.394 196.684 172.456 196.489 172.484C196.163 172.512 195.838 172.56 195.517 172.628C195.255 172.71 195.02 172.861 194.837 173.064C194.565 173.365 194.407 173.75 194.39 174.153C194.39 174.436 194.438 174.594 194.419 174.599C194.334 174.466 194.29 174.311 194.293 174.153C194.271 173.715 194.416 173.286 194.701 172.949C194.898 172.71 195.159 172.531 195.454 172.431C195.781 172.349 196.114 172.291 196.451 172.258C196.617 172.242 196.776 172.187 196.916 172.096C197.056 172.006 197.171 171.884 197.253 171.74C197.389 171.384 197.485 171.014 197.539 170.637C197.583 170.429 197.662 170.23 197.773 170.047C197.889 169.869 198.043 169.718 198.225 169.606C198.559 169.424 198.917 169.29 199.289 169.208C199.605 169.137 199.91 169.022 200.193 168.867C200.427 168.726 200.611 168.517 200.718 168.267C200.825 168.037 200.903 167.788 201 167.61C201.08 167.442 201.191 167.289 201.326 167.159C201.564 166.948 201.763 166.958 201.758 166.972Z" fill="#E6E6E6"/>
<path d="M205.763 169.419C205.63 169.486 205.509 169.573 205.403 169.678C205.29 169.81 205.198 169.959 205.131 170.119C205.054 170.306 204.99 170.532 204.888 170.786C204.775 171.072 204.575 171.317 204.315 171.486C204.013 171.665 203.685 171.798 203.343 171.88C202.995 171.962 202.66 172.089 202.346 172.258C202.194 172.359 202.065 172.489 201.966 172.641C201.867 172.793 201.802 172.963 201.773 173.141C201.716 173.538 201.61 173.926 201.457 174.297C201.361 174.485 201.213 174.641 201.029 174.748C200.859 174.841 200.672 174.902 200.48 174.93C200.153 174.961 199.829 175.009 199.508 175.074C199.245 175.154 199.011 175.305 198.832 175.511C198.557 175.81 198.397 176.196 198.38 176.6C198.38 176.883 198.429 177.041 198.409 177.05C198.324 176.915 198.28 176.759 198.283 176.6C198.264 176.161 198.411 175.732 198.696 175.396C198.891 175.157 199.151 174.978 199.445 174.877C199.772 174.798 200.105 174.74 200.441 174.705C200.607 174.69 200.768 174.635 200.907 174.544C201.047 174.454 201.162 174.331 201.243 174.187C201.381 173.831 201.479 173.461 201.535 173.083C201.579 172.875 201.658 172.676 201.768 172.493C201.883 172.315 202.037 172.164 202.22 172.052C202.554 171.871 202.913 171.737 203.284 171.654C203.599 171.583 203.902 171.468 204.184 171.313C204.419 171.174 204.603 170.964 204.708 170.714C204.815 170.484 204.893 170.234 204.99 170.062C205.07 169.893 205.18 169.74 205.316 169.611C205.569 169.395 205.768 169.409 205.763 169.419Z" fill="#E6E6E6"/>
<path d="M203.556 169.011C203.556 169.011 203.581 169.059 203.556 169.155C203.542 169.301 203.475 169.437 203.367 169.539C202.918 169.801 202.424 169.98 201.909 170.066C201.763 170.109 201.569 170.138 201.423 170.191C201.274 170.261 201.149 170.373 201.063 170.512C200.88 170.862 200.717 171.223 200.577 171.592C200.463 171.804 200.296 171.984 200.091 172.114C199.893 172.246 199.677 172.348 199.449 172.417C198.993 172.536 198.549 172.697 198.123 172.896C197.937 173.017 197.781 173.179 197.668 173.369C197.555 173.558 197.488 173.771 197.471 173.99C197.438 174.456 197.258 174.901 196.956 175.261C196.608 175.512 196.187 175.645 195.756 175.64C195.419 175.649 195.092 175.752 194.813 175.937C194.616 176.083 194.453 176.267 194.335 176.479C194.216 176.69 194.143 176.924 194.122 177.165C194.115 177.346 194.123 177.528 194.147 177.708C194.147 177.708 194.118 177.664 194.084 177.573C194.041 177.44 194.02 177.301 194.02 177.161C194.025 176.898 194.09 176.639 194.208 176.404C194.327 176.168 194.497 175.961 194.706 175.798C195.004 175.581 195.361 175.454 195.731 175.434C196.113 175.434 196.486 175.314 196.796 175.093C197.055 174.762 197.206 174.36 197.228 173.942C197.268 173.701 197.342 173.467 197.447 173.246C197.569 173.011 197.758 172.816 197.991 172.685C198.431 172.478 198.892 172.317 199.367 172.206C199.568 172.158 199.757 172.071 199.924 171.951C200.09 171.831 200.232 171.679 200.339 171.505C200.475 171.13 200.638 170.765 200.825 170.412C200.937 170.245 201.096 170.113 201.282 170.033C201.45 169.983 201.62 169.943 201.792 169.913C202.286 169.843 202.767 169.699 203.216 169.486C203.388 169.377 203.51 169.207 203.556 169.011Z" fill="#E6E6E6"/>
<path d="M138.15 171.323C137.664 171.664 137.829 172.494 138.31 172.839C138.834 173.133 139.434 173.272 140.036 173.237C140.64 173.204 141.235 173.399 141.698 173.784C142.184 174.312 142.184 175.223 142.816 175.631C143.346 175.981 144.099 175.775 144.653 176.11C144.86 176.262 145.033 176.454 145.164 176.673C145.295 176.892 145.381 177.134 145.416 177.386C145.474 177.894 145.64 178.384 145.902 178.825C146.045 179.036 146.266 179.182 146.517 179.232C146.768 179.282 147.029 179.233 147.244 179.094C147.691 178.691 147.433 177.976 147.438 177.377C147.438 176.192 148.575 175.367 149.251 174.388C149.735 173.657 149.993 172.801 149.993 171.928C149.993 171.054 149.735 170.198 149.251 169.467C148.748 168.754 148.042 168.204 147.223 167.886C146.405 167.568 145.509 167.495 144.648 167.678C142.218 168.239 140.599 170.752 138.164 171.347" fill="#E6E6E6"/>
<path d="M140.818 173.333C140.666 173.405 140.528 173.502 140.41 173.621C140.284 173.764 140.18 173.926 140.104 174.1C140.016 174.311 139.943 174.58 139.827 174.853C139.704 175.175 139.481 175.45 139.19 175.64C138.861 175.837 138.504 175.984 138.13 176.077C137.739 176.168 137.363 176.313 137.013 176.508C136.839 176.621 136.691 176.769 136.579 176.941C136.467 177.114 136.393 177.308 136.361 177.511C136.299 177.957 136.181 178.393 136.011 178.811C135.897 179.011 135.729 179.177 135.525 179.29C135.336 179.397 135.128 179.467 134.913 179.497C134.545 179.53 134.18 179.586 133.819 179.665C133.525 179.752 133.261 179.918 133.056 180.144C132.755 180.488 132.583 180.923 132.57 181.377C132.57 181.698 132.633 181.857 132.609 181.886C132.585 181.914 132.58 181.847 132.546 181.761C132.506 181.636 132.481 181.507 132.473 181.377C132.453 180.887 132.618 180.407 132.935 180.029C133.152 179.763 133.442 179.564 133.771 179.454C134.136 179.361 134.508 179.295 134.884 179.257C135.072 179.239 135.254 179.176 135.412 179.073C135.571 178.971 135.701 178.831 135.793 178.667C135.949 178.265 136.058 177.846 136.118 177.42C136.169 177.187 136.255 176.964 136.376 176.758C136.501 176.565 136.667 176.402 136.862 176.278C137.234 176.075 137.633 175.924 138.048 175.832C138.403 175.749 138.744 175.618 139.064 175.443C139.327 175.281 139.533 175.041 139.652 174.758C139.773 174.498 139.856 174.239 139.963 174.019C140.052 173.831 140.176 173.66 140.327 173.515C140.604 173.314 140.823 173.323 140.818 173.333Z" fill="#E6E6E6"/>
<path d="M145.3 176.091C145.148 176.163 145.009 176.26 144.891 176.379C144.765 176.522 144.662 176.684 144.585 176.858C144.498 177.07 144.425 177.338 144.308 177.612C144.185 177.933 143.962 178.209 143.671 178.398C143.341 178.596 142.982 178.743 142.607 178.835C142.217 178.927 141.842 179.072 141.494 179.266C141.32 179.379 141.173 179.527 141.061 179.7C140.948 179.872 140.874 180.066 140.843 180.269C140.777 180.714 140.659 181.15 140.493 181.569C140.379 181.77 140.21 181.936 140.007 182.049C139.819 182.154 139.613 182.224 139.399 182.255C139.031 182.288 138.666 182.344 138.305 182.423C138.011 182.51 137.747 182.676 137.542 182.902C137.241 183.246 137.07 183.681 137.056 184.135C137.056 184.457 137.115 184.615 137.095 184.644C137.076 184.672 137.066 184.6 137.032 184.519C136.992 184.394 136.967 184.266 136.959 184.135C136.939 183.645 137.104 183.165 137.421 182.787C137.639 182.52 137.928 182.319 138.257 182.207C138.623 182.118 138.995 182.054 139.37 182.015C139.559 181.996 139.741 181.933 139.899 181.829C140.057 181.725 140.188 181.585 140.279 181.42C140.425 181.028 140.526 180.621 140.58 180.207C140.63 179.974 140.716 179.75 140.838 179.545C140.962 179.351 141.128 179.188 141.324 179.065C141.696 178.862 142.095 178.711 142.51 178.619C142.863 178.536 143.203 178.406 143.521 178.23C143.786 178.068 143.993 177.828 144.114 177.544C144.235 177.285 144.318 177.026 144.425 176.806C144.513 176.617 144.636 176.446 144.789 176.302C145.086 176.072 145.304 176.081 145.3 176.091Z" fill="#E6E6E6"/>
<path d="M142.83 175.63C142.83 175.63 142.855 175.683 142.83 175.794C142.813 175.956 142.737 176.108 142.617 176.22C142.414 176.372 142.182 176.483 141.936 176.547C141.664 176.638 141.348 176.724 140.993 176.81C140.828 176.858 140.614 176.887 140.463 176.95C140.295 177.03 140.153 177.156 140.055 177.314C139.848 177.71 139.668 178.118 139.516 178.537C139.39 178.767 139.214 178.965 139 179.118C138.778 179.264 138.536 179.378 138.281 179.458C137.77 179.586 137.272 179.761 136.794 179.981C136.583 180.12 136.407 180.304 136.279 180.52C136.152 180.737 136.077 180.979 136.06 181.228C136.03 181.756 135.829 182.261 135.486 182.667C135.101 182.948 134.633 183.096 134.155 183.089C133.775 183.103 133.408 183.223 133.095 183.435C132.875 183.6 132.693 183.808 132.559 184.047C132.426 184.286 132.345 184.55 132.322 184.821C132.313 185.026 132.325 185.232 132.356 185.435C132.356 185.435 132.322 185.387 132.288 185.286C132.24 185.131 132.218 184.969 132.225 184.807C132.23 184.513 132.302 184.223 132.434 183.96C132.565 183.696 132.755 183.464 132.988 183.281C133.322 183.041 133.718 182.9 134.13 182.874C134.561 182.874 134.982 182.74 135.331 182.49C135.623 182.115 135.792 181.662 135.817 181.19C135.86 180.918 135.941 180.653 136.06 180.403C136.197 180.142 136.408 179.926 136.667 179.78C137.16 179.547 137.674 179.364 138.203 179.233C138.432 179.18 138.648 179.082 138.839 178.945C139.029 178.808 139.19 178.635 139.311 178.437C139.474 178.014 139.664 177.602 139.88 177.204C140.001 177.023 140.169 176.877 140.366 176.782C140.59 176.705 140.755 176.695 140.935 176.647C141.488 176.571 142.026 176.409 142.529 176.168C142.693 176.031 142.8 175.84 142.83 175.63Z" fill="#E6E6E6"/>
<path d="M166.714 160.476C165.961 160.989 166.228 162.255 166.962 162.793C167.696 163.33 168.677 163.349 169.591 163.397C170.505 163.445 171.501 163.57 172.133 164.232C172.901 165.038 172.911 166.433 173.839 167.052C174.651 167.589 175.783 167.278 176.649 167.762C177.324 168.151 177.621 168.957 177.81 169.714C177.913 170.487 178.178 171.231 178.588 171.897C179.074 172.516 180.046 172.832 180.634 172.309C181.315 171.695 180.921 170.602 180.931 169.686C180.931 167.872 182.666 166.611 183.701 165.114C184.441 163.998 184.835 162.692 184.835 161.358C184.835 160.024 184.441 158.719 183.701 157.603C182.932 156.514 181.854 155.673 180.603 155.186C179.352 154.698 177.983 154.586 176.668 154.864C172.935 155.717 170.481 159.569 166.762 160.471" fill="#407BFF"/>
<path d="M170.767 163.541C170.526 163.636 170.308 163.78 170.126 163.963C169.922 164.189 169.758 164.447 169.64 164.726C169.499 165.047 169.387 165.445 169.207 165.867C169.019 166.351 168.678 166.763 168.235 167.042C167.735 167.338 167.193 167.558 166.626 167.695C166.021 167.838 165.438 168.064 164.896 168.366C164.626 168.532 164.398 168.757 164.23 169.024C164.066 169.308 163.948 169.615 163.88 169.935C163.785 170.609 163.607 171.27 163.35 171.902C163.193 172.208 162.952 172.465 162.655 172.645C162.372 172.802 162.063 172.906 161.742 172.952C161.176 173.003 160.614 173.091 160.06 173.216C159.599 173.362 159.188 173.633 158.874 173.998C158.405 174.531 158.142 175.21 158.13 175.917C158.143 176.175 158.169 176.433 158.208 176.689C158.208 176.689 158.174 176.626 158.13 176.502C158.071 176.313 158.037 176.118 158.028 175.921C158.006 175.184 158.259 174.464 158.738 173.897C159.069 173.484 159.515 173.175 160.021 173.01C160.582 172.873 161.152 172.776 161.727 172.717C162.019 172.671 162.301 172.573 162.558 172.429C162.817 172.274 163.026 172.049 163.161 171.782C163.398 171.163 163.561 170.519 163.647 169.863C163.721 169.517 163.851 169.185 164.031 168.88C164.217 168.581 164.472 168.329 164.775 168.146C165.338 167.835 165.944 167.604 166.573 167.46C167.122 167.336 167.65 167.132 168.138 166.855C168.548 166.601 168.867 166.225 169.047 165.781C169.232 165.378 169.358 164.985 169.533 164.654C169.666 164.367 169.849 164.106 170.072 163.881C170.218 163.742 170.392 163.634 170.583 163.565C170.642 163.545 170.705 163.537 170.767 163.541Z" fill="#407BFF"/>
<path d="M177.616 167.757C177.371 167.848 177.149 167.992 176.969 168.179C176.766 168.404 176.602 168.66 176.483 168.937C176.342 169.263 176.231 169.657 176.056 170.079C175.865 170.562 175.525 170.973 175.084 171.254C174.582 171.552 174.038 171.773 173.47 171.911C172.865 172.054 172.283 172.279 171.74 172.578C171.472 172.745 171.246 172.97 171.079 173.235C170.913 173.519 170.793 173.826 170.724 174.147C170.629 174.822 170.453 175.484 170.199 176.118C170.04 176.424 169.798 176.68 169.499 176.857C169.216 177.014 168.906 177.118 168.585 177.164C168.02 177.22 167.458 177.308 166.903 177.428C166.444 177.577 166.035 177.849 165.722 178.214C165.251 178.747 164.986 179.426 164.974 180.133C164.983 180.392 165.011 180.65 165.056 180.905C165.017 180.847 164.989 180.782 164.974 180.713C164.918 180.524 164.885 180.33 164.877 180.133C164.853 179.395 165.105 178.674 165.586 178.109C165.912 177.708 166.347 177.406 166.84 177.241C167.401 177.104 167.971 177.006 168.546 176.948C168.839 176.905 169.121 176.807 169.377 176.66C169.635 176.503 169.843 176.279 169.98 176.013C170.215 175.393 170.378 174.749 170.466 174.094C170.54 173.748 170.67 173.416 170.85 173.11C171.039 172.814 171.293 172.563 171.594 172.377C172.157 172.066 172.763 171.836 173.392 171.695C173.939 171.567 174.464 171.362 174.952 171.086C175.363 170.833 175.682 170.459 175.866 170.017C176.051 169.609 176.172 169.216 176.352 168.885C176.484 168.599 176.667 168.339 176.892 168.117C177.028 167.977 177.194 167.867 177.378 167.796C177.452 167.761 177.534 167.747 177.616 167.757Z" fill="#407BFF"/>
<path d="M173.839 167.052C173.86 167.134 173.86 167.22 173.839 167.302C173.808 167.543 173.693 167.767 173.514 167.935C173.203 168.159 172.852 168.322 172.478 168.414C172.055 168.549 171.574 168.678 171.02 168.808C170.763 168.88 170.442 168.923 170.199 169.019C169.931 169.147 169.706 169.346 169.547 169.595C169.183 170.103 169.061 170.794 168.721 171.46C168.536 171.804 168.271 172.1 167.948 172.324C167.613 172.543 167.248 172.716 166.864 172.837C166.076 173.03 165.309 173.302 164.575 173.648C164.232 173.844 163.954 174.134 163.773 174.482C163.609 174.835 163.493 175.208 163.428 175.59C163.362 175.975 163.276 176.356 163.171 176.732C163.066 177.11 162.864 177.454 162.582 177.73C162.3 177.975 161.956 178.141 161.586 178.21C161.252 178.277 160.915 178.325 160.575 178.353C159.985 178.373 159.414 178.563 158.932 178.9C158.544 179.19 158.234 179.571 158.033 180.008C157.877 180.337 157.783 180.692 157.756 181.054C157.744 181.368 157.77 181.682 157.834 181.989C157.793 181.917 157.762 181.839 157.741 181.759C157.681 181.529 157.653 181.292 157.659 181.054C157.667 180.674 157.751 180.299 157.907 179.951C158.105 179.483 158.421 179.074 158.825 178.761C159.058 178.575 159.323 178.432 159.608 178.339C159.914 178.242 160.231 178.178 160.551 178.147C161.183 178.061 161.917 178.027 162.422 177.552C162.928 177.077 163.039 176.3 163.185 175.533C163.252 175.127 163.375 174.731 163.55 174.358C163.752 173.97 164.062 173.647 164.444 173.427C165.191 173.069 165.975 172.789 166.782 172.592C167.147 172.482 167.494 172.32 167.812 172.113C168.104 171.912 168.344 171.646 168.512 171.336C168.843 170.722 168.998 170.012 169.372 169.465C169.557 169.188 169.816 168.967 170.121 168.827C170.264 168.773 170.412 168.734 170.563 168.712L170.976 168.621C171.516 168.506 172.002 168.386 172.435 168.266C172.795 168.188 173.138 168.045 173.446 167.844C173.619 167.695 173.74 167.495 173.791 167.273C173.834 167.139 173.829 167.052 173.839 167.052Z" fill="#407BFF"/>
<path d="M327.531 137.633C327.39 137.717 327.238 137.781 327.079 137.825C326.62 137.95 326.138 137.972 325.669 137.887C324.932 137.751 324.23 137.467 323.608 137.053C322.87 136.573 322.121 135.95 321.207 135.379C320.208 134.765 319.068 134.41 317.893 134.347C316.54 134.292 315.187 134.473 313.897 134.88C311.127 135.643 308.439 137.393 305.236 138.396C303.676 138.929 302.011 139.093 300.376 138.876C298.876 138.596 297.444 138.041 296.152 137.24C294.903 136.516 293.78 135.734 292.696 135.067C291.707 134.428 290.645 133.907 289.532 133.513C288.615 133.189 287.656 132.997 286.684 132.942C285.949 132.906 285.213 133.001 284.511 133.22C283.92 133.424 283.363 133.713 282.859 134.079C282.859 134.079 282.883 134.05 282.946 133.997L283.233 133.767C283.615 133.495 284.036 133.28 284.482 133.129C285.191 132.886 285.939 132.776 286.689 132.803C287.682 132.843 288.665 133.025 289.605 133.345C290.736 133.733 291.816 134.253 292.822 134.894C293.916 135.556 295.044 136.333 296.283 137.038C297.553 137.82 298.959 138.361 300.429 138.636C302.022 138.837 303.64 138.673 305.158 138.156C308.313 137.173 310.991 135.422 313.829 134.654C315.145 134.245 316.524 134.07 317.902 134.136C319.112 134.209 320.282 134.583 321.305 135.225C322.228 135.82 322.962 136.472 323.686 136.933C324.29 137.345 324.971 137.636 325.689 137.787C326.142 137.882 326.611 137.882 327.064 137.787C327.37 137.696 327.521 137.619 327.531 137.633Z" fill="#263238"/>
<path d="M10.0089 137.513C9.99705 137.394 9.99705 137.273 10.0089 137.154C10.0576 136.816 10.1697 136.491 10.3394 136.194C10.6824 135.656 11.1426 135.201 11.6866 134.86C12.2306 134.52 12.8447 134.304 13.4841 134.228C14.3653 134.122 15.2593 134.207 16.1038 134.477C17.0641 134.78 17.9934 135.172 18.8791 135.647C19.8424 136.171 20.8374 136.636 21.8586 137.038C22.9336 137.479 24.1039 137.644 25.2609 137.518C26.4078 137.285 27.4645 136.736 28.3084 135.935C29.1192 135.188 29.9693 134.484 30.8552 133.825C32.4511 132.784 34.3612 132.316 36.2649 132.501C36.9899 132.566 37.7028 132.727 38.384 132.98C38.8917 133.163 39.3801 133.395 39.8422 133.671C40.2412 133.908 40.6099 134.192 40.9406 134.515C40.9406 134.539 40.5566 134.204 39.7936 133.757C39.3291 133.498 38.8409 133.283 38.3354 133.115C37.662 132.886 36.9609 132.745 36.2503 132.697C34.393 132.545 32.5379 133.016 30.9865 134.036C30.1262 134.621 29.3485 135.403 28.4688 136.146C28.0155 136.533 27.5274 136.878 27.0106 137.178C26.4738 137.481 25.8861 137.688 25.2755 137.787C24.0707 137.927 22.8494 137.762 21.7273 137.307C20.6991 136.897 19.6975 136.424 18.7285 135.892C17.8587 135.417 16.9458 135.024 16.0018 134.717C15.1867 134.443 14.3204 134.349 13.4646 134.443C12.846 134.508 12.2494 134.706 11.7169 135.024C11.1844 135.341 10.7291 135.77 10.3831 136.281C10.1759 136.663 10.0486 137.082 10.0089 137.513Z" fill="#263238"/>
<path d="M298.193 145.308C298.193 145.308 297.975 145.394 297.537 145.548L296.721 145.836L295.554 146.095C295.319 146.15 295.08 146.187 294.84 146.205L294.047 146.291C293.755 146.322 293.461 146.333 293.168 146.325H292.196C290.671 146.229 289.159 145.991 287.68 145.615C285.836 145.12 284.021 144.527 282.241 143.84C280.297 143.111 278.183 142.252 275.879 141.442C273.43 140.568 270.895 139.946 268.316 139.585C265.418 139.193 262.489 139.066 259.567 139.206C253.424 139.47 246.794 140.794 239.752 142.372C236.223 143.154 232.578 143.984 228.791 144.694C224.899 145.458 220.957 145.953 216.995 146.176C212.826 146.331 208.65 146.122 204.518 145.553C200.295 145.001 196.027 144.157 191.701 143.241C187.376 142.324 183.006 141.351 178.491 140.583C173.943 139.738 169.333 139.257 164.707 139.144C155.316 139 146.237 140.425 137.488 141.643C133.114 142.262 128.798 142.842 124.55 143.217C120.4 143.602 116.23 143.746 112.063 143.648C103.917 143.437 96.2376 142.464 89.0637 141.581C81.8897 140.698 75.2017 139.854 69.063 139.533C63.5423 139.188 58.0023 139.29 52.4987 139.84C51.2836 139.945 50.1171 140.132 48.9943 140.286C47.8715 140.439 46.8022 140.665 45.7767 140.847C44.7511 141.029 43.779 141.279 42.8604 141.514C41.9418 141.749 41.0621 141.993 40.2407 142.238C37.717 143 35.2514 143.937 32.8625 145.044L31.0253 145.965L30.3983 146.272C30.3983 146.272 30.6024 146.157 31.0156 145.941L32.8382 144.982C35.2231 143.856 37.6873 142.902 40.2115 142.128C41.0329 141.874 41.9126 141.648 42.8313 141.394C43.7499 141.14 44.7366 140.957 45.7475 140.717C46.7585 140.478 47.8472 140.315 48.97 140.142C50.0927 139.969 51.2593 139.797 52.4792 139.662C57.9897 139.096 63.5381 138.981 69.0679 139.317C75.2163 139.629 81.9091 140.449 89.0831 141.336C96.2571 142.224 103.937 143.178 112.063 143.38C116.222 143.473 120.383 143.327 124.525 142.943C128.764 142.564 133.07 141.984 137.449 141.365C146.198 140.142 155.302 138.712 164.721 138.852C169.36 138.964 173.983 139.446 178.544 140.291C183.05 141.072 187.448 142.051 191.769 142.967C196.09 143.883 200.358 144.723 204.572 145.279C208.689 145.848 212.85 146.058 217.005 145.908C220.955 145.688 224.885 145.198 228.767 144.44C232.548 143.735 236.194 142.91 239.727 142.133C246.775 140.559 253.414 139.254 259.577 138.991C262.5 138.856 265.429 138.989 268.326 139.389C270.916 139.756 273.46 140.386 275.918 141.269C278.222 142.08 280.322 142.943 282.275 143.667C284.049 144.357 285.858 144.956 287.695 145.461C289.167 145.84 290.672 146.085 292.191 146.191H293.163C293.455 146.202 293.747 146.194 294.038 146.167L294.83 146.085C295.069 146.07 295.306 146.037 295.539 145.984L296.706 145.735L297.523 145.461C297.965 145.375 298.193 145.308 298.193 145.308Z" fill="#263238"/>
<path d="M278.426 181.5C278.027 181.087 277.591 180.712 277.123 180.377C275.796 179.533 274.25 179.087 272.671 179.092C271.585 179.068 270.501 179.17 269.439 179.394C268.221 179.662 267.028 180.03 265.871 180.492C264.637 180.972 263.354 181.495 261.983 181.974C260.575 182.5 259.105 182.85 257.609 183.015C256.108 183.143 254.596 183.02 253.137 182.651C251.728 182.325 250.405 181.883 249.142 181.495C247.956 181.108 246.744 180.802 245.516 180.579C244.444 180.407 243.355 180.371 242.274 180.473C241.384 180.558 240.511 180.771 239.683 181.106C239.061 181.364 238.485 181.718 237.977 182.157C237.555 182.546 237.179 182.98 236.855 183.452C236.855 183.452 236.855 183.413 236.903 183.351L237.078 183.063C237.171 182.908 237.278 182.762 237.399 182.627C237.545 182.433 237.708 182.251 237.885 182.085C238.393 181.625 238.974 181.25 239.606 180.977C240.441 180.622 241.326 180.392 242.23 180.296C243.328 180.181 244.435 180.207 245.526 180.372C246.766 180.588 247.989 180.891 249.186 181.279C250.454 181.658 251.771 182.094 253.171 182.411C254.599 182.767 256.077 182.887 257.545 182.766C259.015 182.6 260.458 182.257 261.842 181.744C263.193 181.264 264.476 180.737 265.73 180.305C266.898 179.839 268.105 179.474 269.337 179.216C270.416 178.997 271.517 178.904 272.618 178.938C274.225 178.95 275.794 179.432 277.123 180.324C277.331 180.466 277.524 180.627 277.702 180.804C277.842 180.921 277.971 181.051 278.086 181.193L278.299 181.447C278.406 181.466 278.431 181.5 278.426 181.5Z" fill="#263238"/>
<path d="M110.761 183.73C110.365 183.319 109.934 182.941 109.473 182.603C108.146 181.758 106.599 181.312 105.02 181.317C103.935 181.294 102.85 181.395 101.788 181.62C100.569 181.882 99.375 182.25 98.2206 182.718C96.9812 183.198 95.7029 183.721 94.3323 184.195C92.924 184.721 91.4544 185.071 89.9579 185.236C88.4591 185.366 86.9489 185.244 85.4912 184.877C84.0816 184.546 82.7596 184.104 81.4959 183.721C80.3099 183.333 79.0984 183.025 77.87 182.8C76.7981 182.63 75.7089 182.595 74.6281 182.694C73.7375 182.78 72.8646 182.995 72.0375 183.332C71.4145 183.588 70.8382 183.943 70.3315 184.382C69.9099 184.772 69.5319 185.204 69.2039 185.673C69.22 185.638 69.2378 185.605 69.2573 185.572L69.4274 185.289C69.5227 185.133 69.6317 184.985 69.7531 184.848C69.8992 184.655 70.0619 184.476 70.2391 184.311C70.7444 183.849 71.3243 183.475 71.9549 183.202C72.7921 182.847 73.6784 182.618 74.5844 182.521C75.6815 182.408 76.7888 182.432 77.8797 182.593C79.1195 182.812 80.3424 183.114 81.5396 183.5C82.8082 183.884 84.1254 184.315 85.5252 184.637C86.9533 184.993 88.4316 185.113 89.8996 184.992C91.3691 184.825 92.8122 184.48 94.1962 183.965C95.5522 183.485 96.8354 182.963 98.0845 182.502C99.2545 182.038 100.463 181.674 101.696 181.413C102.775 181.195 103.876 181.104 104.977 181.14C106.584 181.15 108.152 181.631 109.482 182.521C109.689 182.664 109.882 182.825 110.061 183.001C110.198 183.118 110.325 183.246 110.44 183.385L110.658 183.644C110.696 183.668 110.731 183.697 110.761 183.73Z" fill="#263238"/>
<path d="M275.957 162.773L275.369 162.984L273.643 163.574C272.122 164.087 269.867 164.855 266.95 165.752C264.034 166.649 260.452 167.699 256.214 168.596C251.415 169.668 246.504 170.177 241.584 170.112C238.721 170.065 235.871 169.727 233.078 169.105C230.057 168.409 227.107 167.446 224.261 166.227C221.301 164.999 218.312 163.574 215.201 162.178C212.029 160.698 208.747 159.46 205.383 158.475C204.523 158.211 203.634 158.043 202.749 157.832C202.307 157.736 201.85 157.679 201.403 157.602C200.953 157.514 200.499 157.451 200.042 157.415C199.123 157.343 198.205 157.238 197.271 157.194H194.467C190.626 157.412 186.82 158.033 183.113 159.046C175.526 160.993 167.948 164.039 159.749 165.627C158.728 165.833 157.693 165.963 156.672 166.131C155.652 166.299 154.611 166.337 153.586 166.443C152.56 166.548 151.525 166.486 150.504 166.51C149.484 166.534 148.463 166.385 147.447 166.327C143.469 165.878 139.548 165.031 135.743 163.8C128.248 161.473 121.249 158.523 114.231 156.897C113.351 156.71 112.481 156.494 111.611 156.336L108.996 155.909C107.283 155.691 105.557 155.579 103.83 155.573C100.522 155.681 97.2403 156.184 94.0553 157.07C90.9592 157.885 88.0235 158.859 85.2142 159.833L77.1459 162.658C72.5303 164.3 67.8244 165.684 63.0507 166.802C60.9412 167.282 58.9485 167.637 57.1161 167.934C56.1975 168.054 55.3177 168.193 54.4769 168.285C53.636 168.376 52.834 168.472 52.071 168.524C49.7352 168.717 47.3912 168.794 45.0476 168.755L43.2201 168.683L42.598 168.649C42.598 168.649 42.8118 168.649 43.225 168.649L45.0476 168.697C46.6516 168.697 49.0235 168.697 52.0612 168.424C52.8243 168.366 53.6214 168.261 54.4623 168.174C55.3031 168.088 56.178 167.934 57.0966 167.814C58.9242 167.507 60.9121 167.162 63.0166 166.663C67.7893 165.529 72.4949 164.136 77.1119 162.49L85.1705 159.66C87.9798 158.701 90.9155 157.698 94.0213 156.878C97.2219 155.984 100.52 155.475 103.844 155.362C105.583 155.365 107.32 155.477 109.045 155.698L111.674 156.12C112.549 156.283 113.419 156.494 114.304 156.681C121.351 158.326 128.36 161.257 135.836 163.574C139.628 164.799 143.536 165.641 147.501 166.088C148.507 166.145 149.523 166.246 150.538 166.27C151.554 166.294 152.575 166.27 153.596 166.203C154.616 166.136 155.642 166.035 156.667 165.891C157.693 165.747 158.714 165.598 159.729 165.411C167.895 163.828 175.472 160.787 183.059 158.84C186.784 157.822 190.608 157.199 194.467 156.983H197.291C198.229 157.022 199.152 157.132 200.076 157.204C200.537 157.244 200.997 157.308 201.451 157.396C201.903 157.473 202.36 157.535 202.807 157.631C203.697 157.842 204.591 158.01 205.456 158.278C208.834 159.257 212.13 160.494 215.313 161.977C218.424 163.373 221.408 164.802 224.363 166.03C227.197 167.246 230.134 168.209 233.141 168.908C235.921 169.534 238.758 169.875 241.608 169.925C246.51 170.001 251.404 169.506 256.189 168.452C260.428 167.57 264.01 166.534 266.926 165.646C269.842 164.759 272.088 164.015 273.614 163.517L275.359 162.936L275.957 162.773Z" fill="#263238"/>
<path d="M73.4083 117.146V104.042H103.951V75.9997C103.951 75.9997 86.687 65.2501 57.7383 72.853L63.5708 56.8653L185.47 52.6682L245.195 92.6733L201.408 126.323L73.4083 125.272V117.146Z" fill="#407BFF"/>
<path d="M128.53 90.4572C129.59 90.4572 238.707 88.3178 238.707 88.3178L212.368 70.6753H184.425C184.425 70.6753 153.659 70.9775 143.569 78.7914C132.244 87.5647 128.53 90.4572 128.53 90.4572Z" fill="#263238"/>
<path d="M121.342 54.8746L68.7568 36.5509L48.7221 38.7766L80.7912 56.2705L121.342 54.8746Z" fill="#407BFF"/>
<path d="M80.7913 56.2706L121.449 54.678L75.8045 53.5508L80.7913 56.2706Z" fill="#407BFF"/>
<g opacity="0.2">
<path d="M80.7913 56.2706L121.449 54.678L75.8045 53.5508L80.7913 56.2706Z" fill="black"/>
</g>
<path d="M103.951 104.042H111.368V80.0769L103.951 75.9949V104.042Z" fill="#407BFF"/>
<g opacity="0.2">
<path d="M103.951 104.042H111.368V80.0769L103.951 75.9949V104.042Z" fill="black"/>
</g>
<path d="M57.7383 72.8529L59.8623 72.3253L66.5162 56.7645L63.5854 56.8652" fill="#407BFF"/>
<g opacity="0.2">
<path d="M57.7383 72.8529L59.8623 72.3253L66.5162 56.7645L63.5854 56.8652" fill="black"/>
</g>
<path d="M189.417 70.6753L175.988 89.541L181.815 89.4307L196.144 70.6753H189.417Z" fill="#FAFAFA"/>
<path d="M198.7 70.6753L184.372 89.3779L186.063 89.3443L200.222 70.6753H198.7Z" fill="#FAFAFA"/>
<path d="M119.145 114.311C119.022 114.311 118.901 114.28 118.793 114.221C118.685 114.162 118.594 114.077 118.528 113.974C118.463 113.872 118.424 113.754 118.416 113.633C118.408 113.511 118.432 113.39 118.484 113.28L127.719 94.1889C127.8 94.0218 127.942 93.8915 128.117 93.8243C128.307 93.7524 147.559 86.562 180.148 80.7915C210.195 75.4718 258.075 70.3009 315.501 75.8892C315.62 75.9012 315.735 75.9419 315.834 76.0079C315.933 76.0738 316.015 76.1628 316.071 76.2671C316.127 76.3714 316.156 76.4878 316.156 76.6059C316.156 76.724 316.127 76.8403 316.07 76.9445L306.942 93.7332C306.851 93.9017 306.695 94.0275 306.509 94.0829C306.324 94.1382 306.124 94.1185 305.953 94.0282C305.782 93.9379 305.655 93.7843 305.599 93.6012C305.543 93.4181 305.563 93.2206 305.654 93.052L314.267 77.2227C257.497 71.7975 210.181 76.9349 180.435 82.2065C150.052 87.5837 131.345 94.1841 128.914 95.0715L119.801 113.899C119.742 114.022 119.65 114.126 119.533 114.199C119.417 114.272 119.283 114.311 119.145 114.311Z" fill="#455A64"/>
<path d="M299.075 76.211L289.82 96.4823L290.263 96.679L299.517 76.4076L299.075 76.211Z" fill="#455A64"/>
<path d="M278.614 74.1531L269.394 94.4861L269.838 94.682L279.058 74.3491L278.614 74.1531Z" fill="#455A64"/>
<path d="M259.635 74.3637L250.415 94.6966L250.858 94.8925L260.079 74.5596L259.635 74.3637Z" fill="#455A64"/>
<path d="M220.884 76.9321L211.664 97.265L212.108 97.4609L221.328 77.128L220.884 76.9321Z" fill="#455A64"/>
<path d="M240.76 74.4191L231.54 94.7521L231.984 94.948L241.204 74.6151L240.76 74.4191Z" fill="#455A64"/>
<path d="M201.812 78.7151L192.592 99.048L193.036 99.2439L202.256 78.911L201.812 78.7151Z" fill="#455A64"/>
<path d="M182.081 81.5139L172.86 101.847L173.304 102.043L182.524 81.7098L182.081 81.5139Z" fill="#455A64"/>
<path d="M162.12 86.1336L152.907 106.47L153.351 106.665L162.564 86.3294L162.12 86.1336Z" fill="#455A64"/>
<path d="M73.7145 139.581C88.427 140.814 103.047 143.783 117.803 143.361C134.708 142.881 151.399 137.936 168.284 138.981C184.323 139.974 199.804 146.335 215.858 145.941C235.557 145.462 255.315 134.875 274.183 140.569C276.069 141.14 277.974 141.869 279.884 142.608L311.258 92.6252C311.258 92.6252 156.881 85.8474 109.959 118.94H31.7884L37.6209 142.948C48.9263 138.852 61.5877 138.569 73.7145 139.581Z" fill="#407BFF"/>
<g opacity="0.1">
<path d="M73.7145 139.581C88.427 140.814 103.047 143.783 117.803 143.361C134.708 142.881 151.399 137.936 168.284 138.981C184.323 139.974 199.804 146.335 215.858 145.941C235.557 145.462 255.315 134.875 274.183 140.569C276.069 141.14 277.974 141.869 279.884 142.608L311.258 92.6252C311.258 92.6252 156.881 85.8474 109.959 118.94H31.7884L37.6209 142.948C48.9263 138.852 61.5877 138.569 73.7145 139.581Z" fill="black"/>
</g>
<path d="M216.519 145.913C236.218 145.433 255.976 134.846 274.844 140.535C276.559 141.053 278.295 141.706 280.03 142.377L295.627 117.477C295.627 117.477 242.648 136.151 192.251 142.847C200.295 144.555 208.334 146.109 216.519 145.913Z" fill="#407BFF"/>
<path d="M43.3028 141.351C39.5651 141.082 37.3731 140.943 37.1398 141.01L37.655 143.13C39.5042 142.439 41.3895 141.845 43.3028 141.351Z" fill="#407BFF"/>
<g opacity="0.3">
<path d="M216.519 145.913C236.218 145.433 255.976 134.846 274.844 140.535C276.559 141.053 278.295 141.706 280.03 142.377L295.627 117.477C295.627 117.477 242.648 136.151 192.251 142.847C200.295 144.555 208.334 146.109 216.519 145.913Z" fill="black"/>
<path d="M43.3028 141.351C39.5651 141.082 37.3731 140.943 37.1398 141.01L37.655 143.131C39.5042 142.439 41.3895 141.845 43.3028 141.351Z" fill="black"/>
</g>
<path d="M188.785 119.919C193.775 119.919 197.821 115.894 197.821 110.93C197.821 105.965 193.775 101.941 188.785 101.941C183.795 101.941 179.75 105.965 179.75 110.93C179.75 115.894 183.795 119.919 188.785 119.919Z" fill="#263238"/>
<mask id="mask0_0_1162" style="mask-type:luminance" maskUnits="userSpaceOnUse" x="179" y="101" width="19" height="19">
<path d="M188.216 119.919C193.207 119.919 197.252 115.894 197.252 110.93C197.252 105.965 193.207 101.941 188.216 101.941C183.226 101.941 179.181 105.965 179.181 110.93C179.181 115.894 183.226 119.919 188.216 119.919Z" fill="white"/>
</mask>
<g mask="url(#mask0_0_1162)">
<path d="M193.835 103.197L181.762 118.106L183.444 119.511L195.604 104.521L193.835 103.197Z" fill="#455A64"/>
<path d="M185.266 120.451L196.611 105.625L197.082 106.291L185.874 120.778L185.266 120.451Z" fill="#455A64"/>
</g>
<path d="M232.796 119.919C237.786 119.919 241.832 115.894 241.832 110.93C241.832 105.965 237.786 101.941 232.796 101.941C227.806 101.941 223.761 105.965 223.761 110.93C223.761 115.894 227.806 119.919 232.796 119.919Z" fill="#263238"/>
<mask id="mask1_0_1162" style="mask-type:luminance" maskUnits="userSpaceOnUse" x="223" y="101" width="19" height="19">
<path d="M232.223 119.919C237.213 119.919 241.258 115.894 241.258 110.93C241.258 105.965 237.213 101.941 232.223 101.941C227.233 101.941 223.187 105.965 223.187 110.93C223.187 115.894 227.233 119.919 232.223 119.919Z" fill="white"/>
</mask>
<g mask="url(#mask1_0_1162)">
<path d="M237.846 103.197L225.768 118.106L227.45 119.511L239.616 104.521L237.846 103.197Z" fill="#455A64"/>
<path d="M229.273 120.451L240.617 105.625L241.093 106.291L229.88 120.778L229.273 120.451Z" fill="#455A64"/>
</g>
<mask id="mask2_0_1162" style="mask-type:luminance" maskUnits="userSpaceOnUse" x="179" y="101" width="19" height="19">
<path d="M188.216 119.919C193.207 119.919 197.252 115.894 197.252 110.93C197.252 105.965 193.207 101.941 188.216 101.941C183.226 101.941 179.181 105.965 179.181 110.93C179.181 115.894 183.226 119.919 188.216 119.919Z" fill="white"/>
</mask>
<g mask="url(#mask2_0_1162)">
<path d="M193.835 103.197L181.762 118.106L183.444 119.511L195.604 104.521L193.835 103.197Z" fill="#FAFAFA"/>
<path d="M185.266 120.451L196.611 105.625L197.082 106.291L185.874 120.778L185.266 120.451Z" fill="#FAFAFA"/>
</g>
<path d="M273.415 119.919C278.405 119.919 282.45 115.894 282.45 110.93C282.45 105.965 278.405 101.941 273.415 101.941C268.425 101.941 264.379 105.965 264.379 110.93C264.379 115.894 268.425 119.919 273.415 119.919Z" fill="#263238"/>
<mask id="mask3_0_1162" style="mask-type:luminance" maskUnits="userSpaceOnUse" x="263" y="101" width="19" height="19">
<path d="M272.846 119.919C277.836 119.919 281.882 115.894 281.882 110.93C281.882 105.965 277.836 101.941 272.846 101.941C267.856 101.941 263.811 105.965 263.811 110.93C263.811 115.894 267.856 119.919 272.846 119.919Z" fill="white"/>
</mask>
<g mask="url(#mask3_0_1162)">
<path d="M278.465 103.197L266.392 118.106L268.068 119.511L280.234 104.521L278.465 103.197Z" fill="#455A64"/>
<path d="M269.896 120.451L281.235 105.625L281.712 106.291L270.504 120.778L269.896 120.451Z" fill="#455A64"/>
</g>
<mask id="mask4_0_1162" style="mask-type:luminance" maskUnits="userSpaceOnUse" x="263" y="101" width="19" height="19">
<path d="M272.846 119.919C277.836 119.919 281.882 115.894 281.882 110.93C281.882 105.965 277.836 101.941 272.846 101.941C267.856 101.941 263.811 105.965 263.811 110.93C263.811 115.894 267.856 119.919 272.846 119.919Z" fill="white"/>
</mask>
<g mask="url(#mask4_0_1162)">
<path d="M278.465 103.197L266.392 118.106L268.068 119.511L280.234 104.521L278.465 103.197Z" fill="#FAFAFA"/>
<path d="M269.896 120.451L281.235 105.625L281.712 106.291L270.504 120.778L269.896 120.451Z" fill="#FAFAFA"/>
</g>
<mask id="mask5_0_1162" style="mask-type:luminance" maskUnits="userSpaceOnUse" x="223" y="101" width="19" height="19">
<path d="M232.223 119.919C237.213 119.919 241.258 115.894 241.258 110.93C241.258 105.965 237.213 101.941 232.223 101.941C227.233 101.941 223.187 105.965 223.187 110.93C223.187 115.894 227.233 119.919 232.223 119.919Z" fill="white"/>
</mask>
<g mask="url(#mask5_0_1162)">
<path d="M237.846 103.197L225.768 118.106L227.45 119.511L239.616 104.521L237.846 103.197Z" fill="#FAFAFA"/>
<path d="M229.273 120.451L240.617 105.625L241.093 106.291L229.88 120.778L229.273 120.451Z" fill="#FAFAFA"/>
</g>
<path d="M103.99 133.892C103.99 135.269 93.0152 136.386 79.4838 136.386C65.9523 136.386 54.9726 135.269 54.9726 133.892C54.9726 132.515 65.9475 131.393 79.4838 131.393C93.0201 131.393 103.99 132.51 103.99 133.892Z" fill="#407BFF"/>
<g opacity="0.2">
<path d="M103.99 133.892C103.99 135.269 93.0152 136.386 79.4838 136.386C65.9523 136.386 54.9726 135.269 54.9726 133.892C54.9726 132.515 65.9475 131.393 79.4838 131.393C93.0201 131.393 103.99 132.51 103.99 133.892Z" fill="black"/>
</g>
<path d="M222.799 28.2981C223.781 24.2181 221.227 20.1244 217.092 19.1547C212.958 18.185 208.81 20.7063 207.828 24.7864C206.845 28.8664 209.4 32.96 213.534 33.9297C217.668 34.8994 221.816 32.3781 222.799 28.2981Z" fill="#407BFF"/>
<path d="M215.858 44.7389C215.717 44.7389 215.605 42.6331 215.605 40.0333C215.605 37.4334 215.717 35.3277 215.858 35.3277C215.999 35.3277 216.11 37.4334 216.11 40.0333C216.11 42.6331 215.994 44.7389 215.858 44.7389Z" fill="#407BFF"/>
<path d="M234.021 25.2159C234.021 25.355 232.077 25.4653 229.647 25.4653C227.217 25.4653 225.272 25.355 225.272 25.2159C225.272 25.0768 227.217 24.9665 229.647 24.9665C232.077 24.9665 234.021 25.0816 234.021 25.2159Z" fill="#407BFF"/>
<path d="M214.682 9.61198C214.822 9.61198 214.934 11.3772 214.934 13.5453C214.934 15.7135 214.822 17.4787 214.682 17.4787C214.541 17.4787 214.429 15.7183 214.429 13.5453C214.429 11.3724 214.541 9.61198 214.682 9.61198Z" fill="#407BFF"/>
<path d="M204.489 27.0243C204.489 27.1634 202.589 27.2737 200.241 27.2737C197.894 27.2737 195.988 27.1874 195.988 27.0243C195.988 26.8612 197.894 26.7748 200.236 26.7748C202.579 26.7748 204.489 26.8852 204.489 27.0243Z" fill="#407BFF"/>
<path d="M208.538 33.3416C208.64 33.4375 207.692 34.5312 206.433 35.7735C205.174 37.0159 204.066 37.9513 203.964 37.8553C203.862 37.7594 204.81 36.6705 206.074 35.4234C207.337 34.1762 208.441 33.2456 208.538 33.3416Z" fill="#407BFF"/>
<path d="M227.877 37.4667C227.78 37.5674 226.648 36.6081 225.345 35.3225C224.043 34.037 223.075 32.9242 223.173 32.8282C223.27 32.7323 224.407 33.6868 225.705 34.9724C227.003 36.2579 227.975 37.3708 227.877 37.4667Z" fill="#407BFF"/>
<path d="M226.964 14.6439C227.061 14.7399 226.206 15.7424 225.054 16.884C223.902 18.0257 222.881 18.8699 222.784 18.7692C222.687 18.6684 223.537 17.6707 224.694 16.5291C225.851 15.3874 226.867 14.548 226.964 14.6439Z" fill="#407BFF"/>
<path d="M208.139 20.0595C208.037 20.1555 207.196 19.4839 206.258 18.5581C205.32 17.6324 204.64 16.8025 204.742 16.7066C204.844 16.6107 205.68 17.2822 206.618 18.208C207.556 19.1338 208.246 19.9636 208.139 20.0595Z" fill="#407BFF"/>
<path d="M160.585 20.0452C160.099 19.9972 159.778 22.6018 159.52 22.0022C159.263 21.4027 160.288 18.8652 159.773 18.8364C159.107 18.798 158.825 21.5322 158.801 21.7624C158.777 21.9927 158.422 21.9399 158.471 21.7336C158.543 21.441 159.2 18.3231 158.543 18.2847C158.184 18.2847 158.203 18.9035 158.203 18.9035C158.203 18.9035 157.805 21.8679 157.494 21.8344C157.182 21.8008 157.357 20.0596 157.46 19.4743C157.562 18.8891 157.319 18.6157 157.022 18.7836C156.823 18.8987 156.468 20.7023 156.385 21.2635C156.303 21.8248 156.089 23.4413 155.545 22.5731C155 21.7048 154.247 21.2396 153.955 21.2539C153.889 21.2646 153.828 21.2951 153.78 21.3414C153.732 21.3877 153.7 21.4475 153.687 21.5125C153.675 21.5776 153.684 21.6448 153.711 21.705C153.739 21.7652 153.785 21.8154 153.843 21.8488C154.115 22.0647 154.354 22.3184 154.553 22.6018C154.718 22.8285 154.841 23.0817 154.918 23.3501C155.044 23.7435 155.127 24.0792 155.185 24.3383C154.626 25.1825 148.507 33.999 141.804 25.8972C138.669 22.1078 136.307 21.8631 135.223 22.031V21.9974L133.556 22.2757L128.696 23.9449C127.97 24.1892 127.267 24.4958 126.596 24.8611C126.596 24.8611 122.246 26.0843 123.077 33.975C123.811 40.9303 123.116 51.3777 122.941 53.7953C121.842 54.4484 120.592 54.8118 119.31 54.8506C119.31 54.8506 118.741 55.4886 119.679 55.431C120.618 55.3734 125.026 55.5989 125.779 54.6779C125.779 54.6779 128.696 55.1576 129.988 54.6395C129.988 54.6395 128.098 54.5916 127.738 54.1215C127.7 54.0651 127.671 54.0037 127.651 53.9392L128.137 33.313L138.902 30.2047C140.895 32.4592 143.651 34.2676 147.33 34.0422C156.031 33.5625 158.825 26.0219 159.161 25.0098C159.672 23.8882 160.121 22.7401 160.507 21.5705C160.901 20.0979 160.77 20.0596 160.585 20.0452Z" fill="#B78876"/>
<path d="M134.105 18.3376C135.596 17.4033 136.721 15.9958 137.294 14.3467C136.957 14.4458 136.605 14.4864 136.254 14.4666C136.077 14.4553 135.906 14.4012 135.756 14.3091C135.606 14.2171 135.482 14.09 135.393 13.939C135.283 13.6044 135.264 13.2468 135.34 12.9029C135.38 12.7276 135.369 12.5447 135.309 12.3751C135.249 12.2055 135.142 12.0559 135 11.9435C134.625 11.7277 134.139 11.9963 133.716 11.8955C133.031 11.7277 132.953 10.8019 132.506 10.2598C132.317 10.0582 132.084 9.90231 131.825 9.80414C131.565 9.70597 131.286 9.66822 131.009 9.69382C130.456 9.75176 129.915 9.89249 129.405 10.1111L134.105 18.3376Z" fill="#263238"/>
<path d="M125.614 9.12766C123.213 10.1302 123.373 12.1544 122.698 13.392C122.45 13.7437 122.333 14.169 122.367 14.596C122.474 15.0757 122.989 15.4258 123.164 15.9103C123.577 17.0423 121.983 18.1744 122.357 19.3208C122.528 19.8533 123.062 20.165 123.441 20.5776C123.82 20.9901 123.986 21.7432 123.5 22.0166L128.122 21.3115C128.122 21.3115 126.294 9.91912 125.415 9.99587" fill="#263238"/>
<path d="M128.088 33.3417L130.285 37.9994L133.507 46.931C137.425 47.1228 144.074 44.6909 148.774 43.2135L141.6 37.0352L140.579 32.6414C141.047 31.4584 141.047 30.1452 140.579 28.9622C140.402 28.5156 140.109 28.1228 139.729 27.8231C139.35 27.5234 138.897 27.3273 138.416 27.2546C138.261 27.2546 135.354 28.2907 135.831 30.9913C135.831 30.9913 133.886 29.3124 131.69 30.4396C130.328 31.1674 129.119 32.1441 128.127 33.3177" fill="#407BFF"/>
<path d="M133.916 22.1846C133.527 21.3154 133.194 20.423 132.919 19.5127C132.919 19.5127 134.8 18.4958 134.1 16.5196C133.4 14.5433 131.398 10.1542 131.398 10.1542L127.082 9.91919L124.827 14.3082L129.075 23.9018L133.916 22.1846Z" fill="#B78876"/>
<path d="M132.112 13.5456C132.133 13.5946 132.139 13.6486 132.129 13.7009C132.119 13.7531 132.093 13.8012 132.055 13.839C132.017 13.8768 131.969 13.9026 131.916 13.9132C131.863 13.9237 131.808 13.9186 131.758 13.8984C131.708 13.8781 131.666 13.8437 131.636 13.7996C131.606 13.7554 131.589 13.7034 131.589 13.6502C131.589 13.597 131.605 13.5449 131.635 13.5007C131.665 13.4565 131.708 13.422 131.758 13.4017C131.79 13.3876 131.826 13.3801 131.862 13.3798C131.897 13.3794 131.933 13.3861 131.966 13.3996C131.999 13.413 132.029 13.4328 132.054 13.4579C132.079 13.483 132.099 13.5128 132.112 13.5456Z" fill="#263238"/>
<path d="M132.511 13.1712C132.511 13.2192 132.239 13.1377 131.967 13.2336C131.694 13.3295 131.544 13.5454 131.481 13.5214C131.417 13.4974 131.481 13.4399 131.534 13.3391C131.621 13.2156 131.745 13.1217 131.889 13.0705C132.034 13.0223 132.191 13.0223 132.336 13.0705C132.467 13.0993 132.521 13.1521 132.511 13.1712Z" fill="#263238"/>
<path d="M129.274 14.7399C129.301 14.8054 129.301 14.879 129.274 14.9446C129.247 15.0102 129.194 15.0625 129.128 15.09C129.095 15.1041 129.06 15.1115 129.024 15.1119C128.988 15.1123 128.953 15.1055 128.92 15.0921C128.887 15.0787 128.857 15.0589 128.832 15.0338C128.806 15.0087 128.787 14.9789 128.773 14.9461C128.763 14.8867 128.773 14.8257 128.803 14.7727C128.832 14.7198 128.878 14.6781 128.934 14.6543C128.99 14.6305 129.053 14.626 129.112 14.6415C129.171 14.657 129.223 14.6917 129.259 14.7399H129.274Z" fill="#263238"/>
<path d="M129.532 14.4042C129.532 14.4522 129.259 14.3707 128.987 14.4666C128.715 14.5625 128.564 14.7784 128.501 14.7544C128.438 14.7304 128.501 14.6681 128.55 14.5721C128.636 14.4459 128.763 14.3514 128.909 14.3035C129.055 14.2582 129.211 14.2582 129.357 14.3035C129.488 14.3323 129.541 14.385 129.532 14.4042Z" fill="#263238"/>
<path d="M131.451 16.2461C131.578 16.1485 131.717 16.0678 131.865 16.0062C131.933 15.9727 131.996 15.9391 131.986 15.8815C131.976 15.824 131.928 15.7568 131.86 15.6896L131.442 15.21C131.069 14.8157 130.729 14.3922 130.426 13.9436C130.827 14.31 131.199 14.7061 131.539 15.1284L131.947 15.6081C132.024 15.6796 132.075 15.7739 132.093 15.8767C132.093 16.011 131.962 16.059 131.903 16.083C131.76 16.1547 131.608 16.2094 131.451 16.2461Z" fill="#263238"/>
<path d="M130.63 16.8647C131.14 16.9279 131.658 16.8953 132.156 16.7688C132.115 16.9435 132.015 17.0995 131.873 17.2117C131.731 17.3239 131.556 17.3858 131.374 17.3876C131.206 17.408 131.037 17.3657 130.899 17.2689C130.761 17.1721 130.665 17.0279 130.63 16.8647Z" fill="white"/>
<path d="M132.919 19.5128C131.976 19.8571 130.952 19.9286 129.969 19.719C129.969 19.719 131.155 20.8895 133.08 20.0021L132.919 19.5128Z" fill="#A36957"/>
<path d="M125.624 16.04C125.389 16.038 125.156 16.0753 124.934 16.1503C124.825 16.1889 124.728 16.2533 124.651 16.3378C124.574 16.4223 124.519 16.5243 124.491 16.6348C124.483 16.7206 124.492 16.8072 124.518 16.8895C124.544 16.9718 124.586 17.0483 124.642 17.1145C124.731 17.2187 124.841 17.303 124.965 17.362C125.09 17.4209 125.225 17.453 125.363 17.4562C125.501 17.4594 125.638 17.4335 125.765 17.3804C125.892 17.3273 126.006 17.2481 126.1 17.148" fill="#B78876"/>
<path d="M133.323 45.185C133.323 45.185 133.464 55.335 142.047 55.0999L141.872 44.312L133.323 45.185Z" fill="#407BFF"/>
<path d="M192.469 42.8154C192.187 41.952 191.429 44.8301 191.142 45.9861C187.74 45.5688 177.941 44.5183 168.848 44.8397C159.297 45.1802 152.735 45.7415 148.473 47.2381L142.869 55.028L168.434 50.946L192.348 51.4544C192.348 51.4544 192.819 43.8851 192.469 42.8154Z" fill="#B78876"/>
<path d="M152.113 46.2884L148.968 54.1167L144.093 54.9274L152.113 46.2884Z" fill="#A36957"/>
<path d="M174.111 51.1713L170.753 51.0993L165.577 44.9451L168.848 44.8395L174.111 51.1713Z" fill="#A36957"/>
<path d="M132.759 11.1279C132.667 11.195 130.329 12.2503 130.329 12.2503L129.4 10.8449L129.935 12.5141L126.256 14.2026L126.703 19.3543L123.753 13.886C123.753 13.886 123.335 8.84461 127.442 8.53761C131.549 8.23062 132.759 11.1279 132.759 11.1279Z" fill="#263238"/>
<path d="M132.146 33.4619C132.195 33.5027 132.236 33.5514 132.268 33.6058C132.367 33.7529 132.441 33.9149 132.487 34.0855C132.566 34.325 132.596 34.5779 132.574 34.829C132.565 34.9801 132.532 35.1289 132.477 35.2703C132.444 35.3546 132.388 35.4282 132.315 35.4825C132.242 35.5368 132.155 35.5697 132.064 35.5773C131.972 35.5666 131.886 35.5282 131.817 35.4672C131.748 35.4062 131.7 35.3257 131.68 35.2367C131.634 35.0923 131.611 34.9419 131.612 34.7906C131.61 34.5368 131.662 34.2854 131.763 34.0519C131.827 33.8957 131.916 33.7501 132.025 33.6202C132.108 33.5291 132.161 33.4907 132.166 33.4955C132.038 33.6805 131.931 33.8782 131.845 34.0855C131.76 34.3091 131.72 34.5471 131.729 34.7858C131.73 34.9259 131.753 35.065 131.797 35.1983C131.84 35.3278 131.933 35.4526 132.064 35.4526C132.355 35.4526 132.433 35.0688 132.458 34.8194C132.481 34.5815 132.463 34.3413 132.404 34.1095C132.338 33.8864 132.252 33.6696 132.146 33.4619Z" fill="white"/>
<path d="M132.088 33.4665C132.088 33.4665 132.088 33.3946 132.088 33.2795C132.121 33.1124 132.179 32.9508 132.258 32.7998C132.38 32.5754 132.545 32.3766 132.744 32.2146C132.858 32.1136 132.988 32.0311 133.128 31.9699C133.212 31.9335 133.304 31.9209 133.394 31.9336C133.484 31.9464 133.569 31.9839 133.639 32.0419C133.695 32.1139 133.728 32.2009 133.733 32.2917C133.738 32.3824 133.715 32.4726 133.668 32.5504C133.594 32.682 133.503 32.8031 133.396 32.9101C133.216 33.0928 132.999 33.2351 132.759 33.3274C132.605 33.3939 132.44 33.4344 132.273 33.4474C132.212 33.459 132.149 33.459 132.088 33.4474C132.309 33.4036 132.526 33.3394 132.735 33.2555C132.955 33.1552 133.153 33.0134 133.318 32.8382C133.415 32.7378 133.499 32.6248 133.566 32.5024C133.604 32.4483 133.625 32.3838 133.625 32.3177C133.625 32.2516 133.604 32.1871 133.566 32.133C133.352 31.9364 133.031 32.133 132.837 32.3057C132.642 32.4553 132.477 32.6391 132.351 32.8478C132.246 33.0466 132.158 33.2535 132.088 33.4665Z" fill="white"/>
<path d="M132.103 33.4568C132.042 33.4383 131.985 33.4073 131.937 33.3657C131.801 33.2671 131.679 33.1491 131.578 33.0155C131.42 32.8158 131.303 32.5877 131.233 32.344C131.19 32.1975 131.171 32.0454 131.174 31.8931C131.173 31.803 131.199 31.7146 131.25 31.6394C131.3 31.5641 131.372 31.5055 131.456 31.471C131.547 31.4465 131.643 31.4515 131.731 31.4852C131.818 31.5189 131.892 31.5795 131.942 31.658C132.034 31.7778 132.108 31.9103 132.161 32.0514C132.252 32.2884 132.292 32.5417 132.278 32.7949C132.269 32.9585 132.236 33.1201 132.18 33.2746C132.163 33.3357 132.133 33.3928 132.093 33.4425C132.147 33.2254 132.179 33.0037 132.19 32.7805C132.191 32.5406 132.144 32.3029 132.054 32.0802C132.002 31.9519 131.934 31.8309 131.85 31.7204C131.815 31.6639 131.763 31.6194 131.701 31.5928C131.639 31.5662 131.571 31.5589 131.505 31.5717C131.237 31.682 131.291 32.0514 131.354 32.296C131.415 32.5292 131.517 32.75 131.655 32.9484C131.792 33.1284 131.941 33.2983 132.103 33.4568Z" fill="white"/>
<path d="M132.083 33.5097C132.042 33.5565 131.99 33.5941 131.933 33.62C131.78 33.7028 131.616 33.7642 131.447 33.8023C131.197 33.8631 130.938 33.8745 130.684 33.8358C130.532 33.8176 130.384 33.7755 130.246 33.7111C130.164 33.6726 130.095 33.6122 130.046 33.5367C129.997 33.4613 129.97 33.3738 129.969 33.2842C129.991 33.1924 130.041 33.1097 130.114 33.0484C130.187 32.9872 130.277 32.9504 130.372 32.9436C130.522 32.9068 130.676 32.8954 130.829 32.9101C131.085 32.9229 131.336 32.99 131.563 33.1067C131.718 33.1815 131.859 33.2803 131.981 33.3993C132.029 33.4394 132.069 33.4883 132.098 33.5432C131.918 33.4064 131.726 33.286 131.524 33.1835C131.301 33.0885 131.062 33.0333 130.82 33.0204C130.679 33.0167 130.539 33.0296 130.402 33.0588C130.27 33.0971 130.134 33.1787 130.125 33.3082C130.125 33.596 130.489 33.6967 130.737 33.7399C130.977 33.7787 131.221 33.7787 131.461 33.7399C131.675 33.6798 131.883 33.6028 132.083 33.5097Z" fill="white"/>
<path d="M132.04 33.5337C132.089 33.4924 132.147 33.4614 132.21 33.4426C132.375 33.3772 132.548 33.3353 132.725 33.3178C132.989 33.2909 133.256 33.312 133.512 33.3802C133.668 33.421 133.813 33.4929 133.94 33.5913C134.012 33.6477 134.067 33.7217 134.101 33.8057C134.135 33.8898 134.147 33.9812 134.134 34.0709C134.108 34.1536 134.065 34.2299 134.007 34.295C133.949 34.3601 133.878 34.4126 133.798 34.4492C133.719 34.4857 133.632 34.5055 133.545 34.5073C133.457 34.5091 133.37 34.4928 133.289 34.4595C133.04 34.3672 132.812 34.227 132.618 34.047C132.488 33.9302 132.365 33.8069 132.249 33.6776C132.166 33.5817 132.127 33.5289 132.137 33.5193C132.146 33.5097 132.336 33.7064 132.676 33.999C132.868 34.1605 133.086 34.2872 133.323 34.3731C133.388 34.3991 133.459 34.4118 133.529 34.4104C133.6 34.4089 133.67 34.3934 133.734 34.3647C133.798 34.336 133.856 34.2948 133.904 34.2435C133.952 34.1922 133.989 34.1319 134.013 34.0661C134.061 33.7639 133.741 33.5865 133.478 33.5001C133.236 33.4271 132.982 33.3979 132.73 33.4138C132.497 33.4369 132.266 33.477 132.04 33.5337Z" fill="white"/>
<path d="M136.715 38.22C136.715 38.22 136.769 38.2632 136.837 38.3639C136.936 38.511 137.009 38.673 137.055 38.8436C137.135 39.0831 137.165 39.336 137.143 39.5871C137.133 39.7382 137.101 39.887 137.046 40.0284C137.013 40.1128 136.957 40.1863 136.884 40.2406C136.811 40.2949 136.724 40.3278 136.633 40.3354C136.541 40.3248 136.455 40.2863 136.386 40.2253C136.317 40.1643 136.269 40.0838 136.249 39.9948C136.203 39.8504 136.18 39.7 136.181 39.5487C136.179 39.2949 136.23 39.0435 136.331 38.81C136.396 38.6538 136.484 38.5082 136.594 38.3783C136.676 38.2872 136.73 38.2488 136.735 38.2536C136.607 38.4386 136.499 38.6364 136.414 38.8436C136.329 39.0672 136.289 39.3052 136.297 39.5439C136.298 39.6841 136.321 39.8232 136.365 39.9565C136.409 40.086 136.501 40.2107 136.633 40.2107C136.924 40.2107 137.002 39.8269 137.026 39.5775C137.05 39.3396 137.032 39.0994 136.973 38.8676C136.907 38.6445 136.821 38.4277 136.715 38.22Z" fill="white"/>
<path d="M136.657 38.2202C136.657 38.2202 136.657 38.153 136.657 38.0379C136.69 37.8708 136.747 37.7093 136.827 37.5582C136.949 37.3338 137.114 37.135 137.313 36.973C137.427 36.8721 137.557 36.7895 137.697 36.7284C137.78 36.6919 137.873 36.6794 137.963 36.6921C138.053 36.7048 138.138 36.7423 138.207 36.8003C138.264 36.8723 138.297 36.9594 138.302 37.0501C138.307 37.1409 138.284 37.231 138.237 37.3088C138.163 37.4405 138.071 37.5616 137.964 37.6686C137.785 37.8512 137.568 37.9935 137.328 38.0859C137.174 38.1523 137.009 38.1929 136.842 38.2058C136.781 38.2175 136.718 38.2175 136.657 38.2058C136.878 38.1621 137.095 38.0979 137.303 38.0139C137.524 37.9136 137.722 37.7719 137.887 37.5966C137.984 37.4962 138.068 37.3833 138.135 37.2608C138.173 37.2067 138.194 37.1423 138.194 37.0762C138.194 37.0101 138.173 36.9456 138.135 36.8915C137.921 36.6948 137.6 36.8915 137.405 37.0642C137.211 37.2138 137.046 37.3975 136.919 37.6062C136.817 37.8041 136.729 38.0094 136.657 38.2202Z" fill="white"/>
<path d="M136.691 38.2201C136.63 38.2016 136.574 38.1705 136.526 38.1289C136.389 38.0303 136.268 37.9123 136.166 37.7788C136.008 37.579 135.891 37.351 135.821 37.1072C135.779 36.9607 135.759 36.8087 135.763 36.6563C135.761 36.5662 135.788 36.4779 135.838 36.4026C135.888 36.3274 135.96 36.2687 136.045 36.2342C136.135 36.2098 136.231 36.2147 136.319 36.2484C136.406 36.2821 136.481 36.3427 136.531 36.4213C136.623 36.541 136.696 36.6736 136.749 36.8146C136.841 37.0517 136.88 37.305 136.866 37.5581C136.857 37.7218 136.824 37.8833 136.769 38.0378C136.751 38.0989 136.721 38.156 136.681 38.2057C136.735 37.9886 136.768 37.7669 136.778 37.5437C136.779 37.3039 136.733 37.0661 136.642 36.8434C136.591 36.7151 136.522 36.5942 136.438 36.4837C136.402 36.4276 136.35 36.3835 136.289 36.357C136.227 36.3305 136.159 36.3228 136.093 36.335C135.826 36.4453 135.879 36.8146 135.942 37.0593C135.988 37.2999 136.077 37.5306 136.205 37.7404C136.355 37.9118 136.517 38.0722 136.691 38.2201Z" fill="white"/>
<path d="M136.652 38.2825C136.61 38.3294 136.559 38.367 136.501 38.3928C136.349 38.4757 136.185 38.537 136.015 38.5751C135.766 38.636 135.506 38.6474 135.252 38.6087C135.101 38.5882 134.954 38.5462 134.815 38.484C134.733 38.4454 134.663 38.385 134.614 38.3096C134.565 38.2341 134.539 38.1466 134.538 38.057C134.555 37.9675 134.599 37.8853 134.665 37.8217C134.732 37.7582 134.816 37.7164 134.907 37.7021C135.056 37.6652 135.211 37.6539 135.364 37.6685C135.62 37.6814 135.87 37.7485 136.098 37.8652C136.252 37.94 136.393 38.0388 136.516 38.1578C136.564 38.1979 136.604 38.2467 136.633 38.3017C136.454 38.1629 136.262 38.0423 136.059 37.9419C135.836 37.8469 135.597 37.7917 135.354 37.7788C135.214 37.7752 135.074 37.788 134.936 37.8172C134.805 37.8556 134.669 37.9371 134.659 38.0666C134.659 38.3544 135.024 38.4552 135.272 38.4984C135.511 38.5371 135.756 38.5371 135.996 38.4984C136.22 38.4436 136.439 38.3714 136.652 38.2825Z" fill="white"/>
<path d="M136.608 38.3066C136.658 38.2653 136.716 38.2343 136.778 38.2155C136.943 38.1502 137.117 38.1082 137.294 38.0908C137.558 38.0614 137.825 38.0826 138.081 38.1531C138.237 38.194 138.382 38.2658 138.509 38.3642C138.58 38.4207 138.636 38.4946 138.67 38.5787C138.704 38.6628 138.716 38.7542 138.703 38.8439C138.676 38.9261 138.632 39.0019 138.574 39.0666C138.516 39.1314 138.445 39.1836 138.366 39.22C138.287 39.2565 138.201 39.2764 138.113 39.2786C138.026 39.2807 137.938 39.265 137.857 39.2324C137.608 39.1401 137.38 38.9999 137.187 38.8199C137.057 38.7032 136.934 38.5799 136.817 38.4505C136.735 38.3546 136.696 38.3018 136.705 38.2922C136.715 38.2827 136.905 38.4793 137.245 38.7719C137.437 38.9319 137.655 39.057 137.891 39.1413C137.957 39.1681 138.027 39.1815 138.097 39.1807C138.168 39.1799 138.238 39.1649 138.302 39.1367C138.367 39.1084 138.425 39.0674 138.473 39.0162C138.521 38.9651 138.558 38.9048 138.582 38.8391C138.63 38.5369 138.309 38.3594 138.047 38.2731C137.805 38.2001 137.551 38.1708 137.298 38.1867C137.066 38.2099 136.835 38.2499 136.608 38.3066Z" fill="white"/>
<path d="M142.523 41.5204C142.523 41.5204 142.577 41.5635 142.645 41.6595C142.742 41.8077 142.815 41.9694 142.864 42.1391C142.938 42.3813 142.968 42.6348 142.951 42.8874C142.941 43.0385 142.908 43.1872 142.854 43.3287C142.82 43.4129 142.763 43.4859 142.689 43.5394C142.615 43.5929 142.527 43.6246 142.436 43.6309C142.345 43.621 142.26 43.5833 142.192 43.5231C142.124 43.4629 142.077 43.3832 142.057 43.2952C142.012 43.149 141.989 42.9971 141.989 42.8443C141.986 42.5924 142.036 42.3427 142.135 42.1104C142.201 41.9541 142.292 41.8086 142.402 41.6786C142.48 41.5875 142.538 41.5491 142.543 41.5539C142.415 41.738 142.306 41.934 142.217 42.1391C142.136 42.3653 142.098 42.6044 142.105 42.8443C142.107 42.9824 142.128 43.1197 142.169 43.252C142.217 43.3815 142.31 43.5062 142.441 43.5062C142.732 43.5062 142.81 43.1273 142.835 42.8778C142.859 42.6381 142.839 42.3959 142.776 42.1631C142.713 41.9415 142.628 41.7263 142.523 41.5204Z" fill="white"/>
<path d="M142.451 41.5203C142.451 41.5203 142.451 41.4531 142.451 41.338C142.481 41.1701 142.538 41.0081 142.621 40.8583C142.744 40.6331 142.908 40.4329 143.107 40.2683C143.222 40.1669 143.354 40.0844 143.496 40.0237C143.579 39.9879 143.672 39.9761 143.762 39.9897C143.852 40.0032 143.937 40.0416 144.006 40.1004C144.057 40.1691 144.087 40.2509 144.092 40.336C144.098 40.4211 144.078 40.5059 144.035 40.5801C143.962 40.7145 143.868 40.8374 143.758 40.9447C143.58 41.1271 143.365 41.2694 143.126 41.362C142.971 41.4263 142.807 41.4668 142.64 41.4819C142.519 41.4819 142.451 41.4819 142.451 41.4819C142.674 41.4394 142.892 41.3751 143.102 41.29C143.321 41.1894 143.518 41.0495 143.685 40.8775C143.783 40.7754 143.866 40.6609 143.933 40.5369C143.97 40.4833 143.99 40.4198 143.99 40.3547C143.99 40.2896 143.97 40.226 143.933 40.1724C143.719 39.9757 143.398 40.1724 143.204 40.3451C143.01 40.4947 142.845 40.6784 142.718 40.8871C142.609 41.0893 142.519 41.3013 142.451 41.5203Z" fill="white"/>
<path d="M142.465 41.5155C142.404 41.4982 142.347 41.467 142.3 41.4244C142.163 41.3229 142.04 41.2035 141.935 41.0694C141.779 40.8694 141.664 40.6414 141.595 40.3979C141.553 40.2528 141.532 40.1026 141.532 39.9518C141.534 39.8612 141.562 39.773 141.613 39.6974C141.664 39.6218 141.735 39.562 141.819 39.5249C141.909 39.5019 142.005 39.5076 142.092 39.5412C142.179 39.5748 142.254 39.6345 142.305 39.7119C142.397 39.8333 142.471 39.9675 142.524 40.1101C142.615 40.347 142.655 40.6004 142.64 40.8536C142.631 41.0172 142.598 41.1788 142.543 41.3333C142.526 41.3931 142.496 41.4487 142.455 41.4964C142.51 41.2811 142.543 41.0609 142.553 40.8392C142.553 40.5993 142.507 40.3616 142.417 40.1389C142.365 40.0079 142.295 39.8851 142.208 39.7743C142.172 39.7195 142.12 39.6766 142.06 39.6509C141.999 39.6253 141.932 39.6181 141.867 39.6304C141.6 39.7407 141.654 40.1101 141.717 40.3547C141.778 40.5864 141.88 40.8057 142.018 41.0023C142.152 41.1857 142.302 41.3574 142.465 41.5155Z" fill="white"/>
<path d="M142.446 41.5778C142.401 41.6215 142.35 41.6586 142.295 41.6881C142.142 41.771 141.979 41.8323 141.809 41.8704C141.559 41.9313 141.3 41.9427 141.046 41.904C140.895 41.8842 140.747 41.8421 140.608 41.7793C140.526 41.7404 140.456 41.6792 140.407 41.6028C140.358 41.5265 140.332 41.438 140.331 41.3476C140.348 41.259 140.391 41.1776 140.457 41.1148C140.522 41.052 140.606 41.011 140.696 40.9974C140.845 40.9614 140.999 40.9485 141.153 40.959C141.41 40.9756 141.661 41.0425 141.892 41.1557C142.044 41.2308 142.184 41.3296 142.305 41.4483C142.392 41.5346 142.431 41.5874 142.421 41.5922C142.244 41.4559 142.053 41.337 141.853 41.2372C141.631 41.1378 141.391 41.0823 141.148 41.0741C141.007 41.0657 140.866 41.0786 140.73 41.1125C140.594 41.1461 140.463 41.2324 140.453 41.3619C140.453 41.6498 140.813 41.7505 141.065 41.7937C141.305 41.835 141.55 41.835 141.79 41.7937C142.013 41.7374 142.232 41.6652 142.446 41.5778Z" fill="white"/>
<path d="M142.402 41.578C142.452 41.5367 142.51 41.5057 142.572 41.4869C142.737 41.4215 142.91 41.3796 143.087 41.3622C143.351 41.3304 143.619 41.3516 143.875 41.4245C144.032 41.4613 144.178 41.5335 144.302 41.6356C144.374 41.6921 144.43 41.766 144.464 41.85C144.498 41.9341 144.509 42.0255 144.497 42.1152C144.47 42.1974 144.426 42.2733 144.368 42.338C144.31 42.4027 144.239 42.4549 144.16 42.4914C144.08 42.5279 143.994 42.5478 143.907 42.5499C143.819 42.552 143.732 42.5363 143.651 42.5038C143.401 42.4116 143.172 42.2696 142.98 42.0865C142.85 41.971 142.726 41.8476 142.611 41.7171C142.563 41.673 142.524 41.6211 142.494 41.5636C142.494 41.5636 142.698 41.7507 143.039 42.0193C143.229 42.1826 143.448 42.3095 143.685 42.3935C143.75 42.4196 143.82 42.4325 143.891 42.4313C143.961 42.4302 144.031 42.4151 144.095 42.3869C144.159 42.3587 144.217 42.318 144.266 42.2672C144.314 42.2164 144.351 42.1566 144.375 42.0913C144.424 41.7891 144.103 41.5876 143.841 41.5252C143.598 41.4522 143.345 41.423 143.092 41.4389C142.858 41.4654 142.627 41.512 142.402 41.578Z" fill="white"/>
<path d="M136.526 45.1706C136.526 45.1706 136.579 45.209 136.647 45.3097C136.744 45.4494 136.817 45.6032 136.866 45.7654C136.945 46.0049 136.975 46.2578 136.953 46.5089C136.943 46.6615 136.911 46.8118 136.856 46.955C136.823 47.0385 136.766 47.111 136.693 47.1644C136.62 47.2179 136.534 47.25 136.443 47.2572C136.351 47.2473 136.264 47.209 136.195 47.1479C136.127 47.0868 136.079 47.0059 136.059 46.9166C136.013 46.7722 135.99 46.6218 135.991 46.4705C135.989 46.2167 136.041 45.9653 136.142 45.7318C136.205 45.5764 136.294 45.4322 136.404 45.3049C136.487 45.2138 136.54 45.1706 136.545 45.1754C136.417 45.3604 136.31 45.5582 136.224 45.7654C136.139 45.989 136.099 46.227 136.108 46.4657C136.109 46.6059 136.132 46.745 136.176 46.8783C136.219 47.0078 136.312 47.1325 136.443 47.1325C136.735 47.1325 136.812 46.7535 136.837 46.4993C136.861 46.2614 136.842 46.0212 136.783 45.7894C136.717 45.5758 136.63 45.3687 136.526 45.1706Z" fill="white"/>
<path d="M136.467 45.1708C136.467 45.1708 136.467 45.1036 136.467 44.9837C136.501 44.8166 136.558 44.6551 136.638 44.504C136.759 44.2796 136.925 44.0808 137.124 43.9188C137.238 43.8179 137.367 43.7353 137.508 43.6742C137.591 43.6377 137.683 43.6252 137.773 43.6379C137.863 43.6506 137.948 43.6881 138.018 43.7461C138.074 43.8181 138.107 43.9052 138.112 43.9959C138.117 44.0867 138.095 44.1768 138.047 44.2546C137.972 44.387 137.881 44.5095 137.775 44.6192C137.593 44.7985 137.376 44.9403 137.138 45.0365C136.983 45.0996 136.819 45.1384 136.652 45.1516C136.591 45.1632 136.528 45.1632 136.467 45.1516C136.689 45.1079 136.905 45.0437 137.114 44.9597C137.334 44.8594 137.532 44.7177 137.697 44.5424C137.796 44.4429 137.879 44.3298 137.945 44.2066C137.982 44.152 138.002 44.0877 138.002 44.022C138.002 43.9562 137.982 43.8919 137.945 43.8373C137.731 43.6454 137.41 43.8373 137.216 44.01C137.023 44.1608 136.858 44.3443 136.73 44.552C136.626 44.7513 136.539 44.9582 136.467 45.1708Z" fill="white"/>
<path d="M136.482 45.161C136.482 45.161 136.419 45.161 136.317 45.0747C136.181 44.9728 136.06 44.8534 135.957 44.7197C135.799 44.52 135.682 44.2919 135.612 44.0482C135.569 43.9017 135.55 43.7496 135.554 43.5973C135.553 43.5072 135.579 43.4188 135.629 43.3436C135.679 43.2683 135.751 43.2097 135.836 43.1752C135.926 43.1515 136.022 43.1568 136.11 43.1904C136.197 43.2241 136.271 43.2842 136.322 43.3622C136.414 43.4836 136.488 43.6178 136.54 43.7604C136.686 44.1603 136.686 44.598 136.54 44.9979C136.522 45.0572 136.492 45.1124 136.453 45.161C136.507 44.9439 136.539 44.7223 136.55 44.4991C136.55 44.2592 136.504 44.0215 136.414 43.7987C136.362 43.6705 136.294 43.5495 136.21 43.439C136.174 43.3834 136.121 43.3397 136.06 43.3132C135.999 43.2868 135.931 43.2788 135.865 43.2903C135.597 43.4006 135.651 43.77 135.714 44.0194C135.776 44.2507 135.878 44.4698 136.015 44.667C136.155 44.8455 136.311 45.0109 136.482 45.161Z" fill="white"/>
<path d="M136.462 45.2139C136.462 45.2139 136.414 45.2666 136.312 45.3242C136.16 45.4089 135.996 45.4719 135.826 45.5113C135.575 45.5673 135.317 45.5787 135.063 45.5448C134.911 45.5246 134.763 45.4809 134.625 45.4153C134.543 45.3768 134.474 45.3164 134.425 45.2409C134.376 45.1655 134.349 45.078 134.348 44.9884C134.365 44.8988 134.41 44.8167 134.476 44.7531C134.542 44.6895 134.626 44.6477 134.718 44.6334C134.867 44.599 135.021 44.5876 135.174 44.5999C135.43 44.615 135.68 44.682 135.908 44.7965C136.062 44.873 136.203 44.9716 136.326 45.0891C136.374 45.1292 136.414 45.1781 136.443 45.233C136.262 45.0982 136.07 44.9779 135.869 44.8733C135.647 44.7775 135.408 44.7238 135.165 44.715C135.024 44.7073 134.884 44.7186 134.747 44.7486C134.616 44.7869 134.479 44.8733 134.47 44.998C134.47 45.2858 134.834 45.3865 135.082 45.4297C135.321 45.4734 135.567 45.4734 135.806 45.4297C136.032 45.3789 136.251 45.3066 136.462 45.2139Z" fill="white"/>
<path d="M136.419 45.2427C136.419 45.2427 136.472 45.1947 136.589 45.1468C137.005 44.9869 137.463 44.9666 137.892 45.0892C138.048 45.1261 138.194 45.1965 138.319 45.2955C138.391 45.3519 138.447 45.4259 138.481 45.5099C138.515 45.594 138.526 45.6854 138.514 45.7751C138.487 45.8578 138.444 45.9341 138.386 45.9992C138.328 46.0643 138.257 46.1168 138.178 46.1534C138.098 46.1899 138.012 46.2097 137.924 46.2115C137.836 46.2133 137.749 46.197 137.668 46.1637C137.419 46.0714 137.191 45.9312 136.997 45.7511C136.868 45.6344 136.744 45.5111 136.628 45.3818C136.545 45.2859 136.506 45.2331 136.516 45.2283C136.526 45.2235 136.715 45.4106 137.056 45.708C137.247 45.8695 137.466 45.9962 137.702 46.0821C137.768 46.1081 137.838 46.1208 137.909 46.1193C137.979 46.1179 138.049 46.1024 138.113 46.0737C138.178 46.045 138.236 46.0038 138.284 45.9525C138.332 45.9012 138.368 45.8409 138.392 45.7751C138.441 45.4777 138.12 45.2955 137.858 45.2091C137.615 45.1385 137.362 45.1093 137.109 45.1228C136.876 45.1413 136.645 45.1814 136.419 45.2427Z" fill="white"/>
<path d="M138.378 31.5621C138.378 31.5621 138.431 31.6053 138.499 31.7061C138.598 31.8531 138.672 32.0152 138.718 32.1857C138.792 32.4263 138.822 32.6782 138.805 32.9292C138.796 33.0809 138.762 33.2301 138.703 33.3705C138.67 33.454 138.613 33.5266 138.54 33.58C138.467 33.6334 138.381 33.6655 138.29 33.6727C138.199 33.6624 138.113 33.6247 138.044 33.5646C137.976 33.5045 137.927 33.425 137.906 33.337C137.862 33.1923 137.841 33.0419 137.843 32.8909C137.84 32.6374 137.889 32.386 137.989 32.1522C138.057 31.9965 138.147 31.8512 138.256 31.7204C138.293 31.6706 138.339 31.6283 138.392 31.5957C138.267 31.7821 138.159 31.9796 138.071 32.1857C137.99 32.4103 137.952 32.6478 137.96 32.8861C137.961 33.0242 137.982 33.1615 138.023 33.2938C138.071 33.4281 138.164 33.5528 138.295 33.5528C138.586 33.5528 138.664 33.1691 138.689 32.9196C138.714 32.6815 138.694 32.4408 138.63 32.2097C138.564 31.9873 138.48 31.7707 138.378 31.5621Z" fill="white"/>
<path d="M138.314 31.5624C138.305 31.502 138.305 31.4405 138.314 31.3801C138.35 31.2129 138.409 31.0514 138.489 30.9004C138.61 30.6742 138.776 30.4737 138.975 30.3104C139.091 30.209 139.222 30.1265 139.364 30.0658C139.444 30.0315 139.532 30.0204 139.619 30.034C139.705 30.0476 139.785 30.0853 139.85 30.1425C139.903 30.2104 139.934 30.2924 139.94 30.3779C139.945 30.4635 139.924 30.5486 139.879 30.6222C139.81 30.7582 139.718 30.8815 139.607 30.9868C139.429 31.1682 139.213 31.3104 138.975 31.4041C138.82 31.4679 138.657 31.5084 138.489 31.524C138.427 31.5354 138.362 31.5354 138.3 31.524C138.523 31.4815 138.741 31.4172 138.951 31.3321C139.17 31.2301 139.368 31.0886 139.534 30.9148C139.632 30.8144 139.715 30.7015 139.782 30.579C139.819 30.5244 139.839 30.4602 139.839 30.3944C139.839 30.3286 139.819 30.2643 139.782 30.2097C139.568 30.013 139.248 30.2097 139.053 30.3824C138.858 30.531 138.693 30.7149 138.567 30.9244C138.465 31.1299 138.381 31.3433 138.314 31.5624Z" fill="white"/>
<path d="M138.334 31.5573C138.272 31.54 138.216 31.5088 138.169 31.4662C138.03 31.3661 137.907 31.2465 137.804 31.1112C137.648 30.9112 137.532 30.6832 137.464 30.4397C137.422 30.2946 137.4 30.1445 137.401 29.9936C137.403 29.903 137.431 29.8148 137.481 29.7392C137.532 29.6636 137.604 29.6038 137.687 29.5667C137.778 29.5452 137.873 29.5516 137.96 29.585C138.047 29.6185 138.121 29.6773 138.173 29.7537C138.265 29.8757 138.338 30.0098 138.392 30.1519C138.481 30.3895 138.521 30.6423 138.509 30.8954C138.501 31.0596 138.466 31.2215 138.407 31.3751C138.391 31.4358 138.362 31.4929 138.324 31.5429C138.375 31.3253 138.407 31.1039 138.421 30.881C138.419 30.6413 138.373 30.404 138.285 30.1807C138.235 30.0508 138.164 29.9295 138.076 29.8209C138.042 29.7648 137.991 29.7205 137.93 29.6939C137.869 29.6673 137.801 29.6597 137.736 29.6722C137.469 29.7825 137.522 30.1519 137.585 30.3965C137.646 30.6297 137.748 30.8505 137.887 31.0489C138.021 31.2302 138.171 31.4003 138.334 31.5573Z" fill="white"/>
<path d="M138.31 31.6103C138.31 31.6103 138.266 31.6631 138.164 31.7207C138.011 31.8035 137.848 31.8649 137.678 31.9029C137.428 31.9638 137.169 31.9752 136.915 31.9365C136.763 31.9167 136.616 31.8747 136.477 31.8118C136.394 31.774 136.324 31.7138 136.274 31.6383C136.224 31.5628 136.197 31.475 136.195 31.3849C136.213 31.2956 136.258 31.2138 136.324 31.1503C136.39 31.0869 136.474 31.0449 136.565 31.0299C136.714 30.994 136.868 30.981 137.022 30.9915C137.278 31.0068 137.528 31.0755 137.755 31.193C137.91 31.2656 138.051 31.3629 138.173 31.4808C138.221 31.5209 138.261 31.5698 138.29 31.6247C138.113 31.4884 137.922 31.3695 137.721 31.2698C137.499 31.1723 137.26 31.117 137.017 31.1067C136.876 31.1028 136.736 31.1157 136.599 31.145C136.463 31.1834 136.331 31.265 136.322 31.3945C136.322 31.6823 136.681 31.783 136.934 31.8262C137.174 31.8676 137.419 31.8676 137.658 31.8262C137.881 31.7733 138.099 31.7011 138.31 31.6103Z" fill="white"/>
<path d="M138.271 31.634C138.321 31.5927 138.378 31.5617 138.441 31.5429C138.605 31.4764 138.779 31.4343 138.956 31.4182C139.22 31.3888 139.487 31.41 139.743 31.4806C139.9 31.5193 140.046 31.5914 140.171 31.6916C140.243 31.7481 140.298 31.822 140.332 31.9061C140.367 31.9902 140.378 32.0816 140.365 32.1713C140.338 32.2535 140.295 32.3293 140.237 32.394C140.179 32.4588 140.108 32.511 140.028 32.5475C139.949 32.5839 139.863 32.6038 139.775 32.606C139.688 32.6081 139.601 32.5924 139.52 32.5598C139.269 32.4677 139.041 32.3256 138.849 32.1425C138.717 32.0283 138.594 31.9048 138.48 31.7732C138.432 31.729 138.393 31.6771 138.363 31.6197C138.363 31.6197 138.567 31.8067 138.907 32.0754C139.097 32.2396 139.316 32.3666 139.554 32.4495C139.619 32.4756 139.689 32.4885 139.759 32.4874C139.83 32.4862 139.899 32.4711 139.964 32.4429C140.028 32.4147 140.086 32.374 140.134 32.3232C140.182 32.2724 140.22 32.2126 140.244 32.1473C140.293 31.8451 139.972 31.6676 139.709 31.5813C139.467 31.5085 139.214 31.4793 138.961 31.4949C138.728 31.5244 138.497 31.5709 138.271 31.634Z" fill="white"/>
<path d="M181.086 52.0062C181.086 52.0062 168.935 30.6413 163.418 27.9167C157.902 25.1922 138.975 44.9597 138.975 44.9597C131.505 53.9057 140.229 55.7332 143.68 54.9514C145.454 54.5484 159.603 36.7572 161.139 36.7236C162.675 36.69 176.06 53.5699 176.06 53.5699C176.06 53.5699 183.764 53.6658 184.833 53.2629C185.903 52.86 181.086 52.0062 181.086 52.0062Z" fill="#B78876"/>
<path d="M125.303 9.46825C125.434 9.04414 125.493 8.60175 125.478 8.15873C125.465 7.71058 125.293 7.28121 124.992 6.94514C124.744 6.70282 124.424 6.54475 124.079 6.49387C123.734 6.44298 123.381 6.50192 123.072 6.66213C122.769 6.83332 122.524 7.08773 122.365 7.39434C122.206 7.70096 122.141 8.04655 122.178 8.38898C122.223 8.73127 122.358 9.05597 122.57 9.33103C122.781 9.60609 123.061 9.82202 123.383 9.95752C123.707 10.0861 124.057 10.1391 124.405 10.1124C124.753 10.0858 125.09 9.98028 125.39 9.80402" fill="#263238"/>
</g>
<defs>
<filter id="filter0_d_0_1162" x="0" y="0.476074" width="342.08" height="199.197" filterUnits="userSpaceOnUse" color-interpolation-filters="sRGB">
<feFlood flood-opacity="0" result="BackgroundImageFix"/>
<feColorMatrix in="SourceAlpha" type="matrix" values="0 0 0 0 0 0 0 0 0 0 0 0 0 0 0 0 0 0 127 0" result="hardAlpha"/>
<feOffset dy="4"/>
<feGaussianBlur stdDeviation="5"/>
<feComposite in2="hardAlpha" operator="out"/>
<feColorMatrix type="matrix" values="0 0 0 0 0 0 0 0 0 0 0 0 0 0 0 0 0 0 0.25 0"/>
<feBlend mode="normal" in2="BackgroundImageFix" result="effect1_dropShadow_0_1162"/>
<feBlend mode="normal" in="SourceGraphic" in2="effect1_dropShadow_0_1162" result="shape"/>
</filter>
</defs>
</svg>
